<?xml version="1.0" encoding="UTF-8" standalone="no"?>
<!-- Created with Inkscape (http://www.inkscape.org/) -->

<svg
   width="210mm"
   height="297mm"
   viewBox="0 0 210 297"
   version="1.1"
   id="svg1"
   xml:space="preserve"
   inkscape:version="1.3.2 (091e20e, 2023-11-25)"
   sodipodi:docname="brain_inner.svg"
   xmlns:inkscape="http://www.inkscape.org/namespaces/inkscape"
   xmlns:sodipodi="http://sodipodi.sourceforge.net/DTD/sodipodi-0.dtd"
   xmlns="http://www.w3.org/2000/svg"
   xmlns:svg="http://www.w3.org/2000/svg"><sodipodi:namedview
     id="namedview1"
     pagecolor="#ffffff"
     bordercolor="#999999"
     borderopacity="1"
     inkscape:showpageshadow="2"
     inkscape:pageopacity="0"
     inkscape:pagecheckerboard="0"
     inkscape:deskcolor="#d1d1d1"
     inkscape:document-units="mm"
     showguides="true"
     inkscape:zoom="3.9419535"
     inkscape:cx="390.5424"
     inkscape:cy="569.64142"
     inkscape:window-width="1408"
     inkscape:window-height="916"
     inkscape:window-x="831"
     inkscape:window-y="1730"
     inkscape:window-maximized="0"
     inkscape:current-layer="layer1" /><defs
     id="defs1" /><g
     inkscape:label="Layer 1"
     inkscape:groupmode="layer"
     id="layer1"><path
       d="m 80.327044,175.71541 c 2.328264,0.45309 4.841343,0.33296 7.172055,0 0.993315,-0.1419 2.13822,0.24242 3.107894,0 0.17287,-0.0432 0.303405,-0.20413 0.478136,-0.23907 0.39071,-0.0781 0.808792,0.0966 1.195343,0 0.17287,-0.0432 0.303405,-0.20412 0.478136,-0.23907 0.468852,-0.0938 0.96556,0.0938 1.434412,0 0.174731,-0.035 0.303406,-0.20412 0.478137,-0.23907 1.84586,-0.36917 4.942538,0.43785 6.693923,0 0.10933,-0.0273 0.15938,-0.15938 0.23907,-0.23907 0.23906,0 0.47813,0 0.7172,0 0.94572,0 1.72073,-0.0118 2.62976,-0.23907 0.52501,-0.13125 1.14846,0.13126 1.67348,0 0.10933,-0.0273 0.12973,-0.21173 0.23906,-0.23907 0.23193,-0.058 0.48278,0.0469 0.71721,0 0.17473,-0.0349 0.30527,-0.19585 0.47814,-0.23907 1.27826,-0.31956 2.79222,0.0789 4.06416,-0.23906 0.43021,-0.10756 1.49936,-0.85298 1.91255,-0.95628 0.30924,-0.0773 0.67117,0.14255 0.95628,0 0.72905,-0.36452 -0.43725,-0.18952 0.7172,-0.47813 0.15462,-0.0387 0.34553,0.0884 0.47814,0 0.14826,-0.0988 0.0908,-0.3793 0.23907,-0.47814 0.0647,-0.0431 1.50413,-0.39347 1.67348,-0.47814 0.32493,-0.16246 0.63134,-0.55474 0.95627,-0.7172 0.0374,-0.0187 1.67119,-0.47661 1.67348,-0.47814 0.14827,-0.0988 0.0908,-0.3793 0.23907,-0.47814 0.13261,-0.0884 0.32694,0.0504 0.47814,0 0.21383,-0.0713 0.26431,-0.40686 0.47814,-0.47814 0.1512,-0.0504 0.34552,0.0884 0.47813,0 0.14827,-0.0988 0.11307,-0.35213 0.23907,-0.47813 0.0564,-0.0564 0.18272,0.0564 0.23907,0 0.0564,-0.0564 -0.0713,-0.20343 0,-0.23907 0.14255,-0.0713 0.33559,0.0713 0.47814,0 0.0713,-0.0356 -0.0564,-0.18272 0,-0.23907 0.10018,-0.10018 0.57231,-0.16662 0.7172,-0.23907 0.2016,-0.1008 0.27654,-0.37734 0.47814,-0.47814 0.1477,-0.0738 0.86766,-0.15045 0.95628,-0.23906 0.0563,-0.0563 -0.0713,-0.20343 0,-0.23907 0.14255,-0.0713 0.33558,0.0713 0.47813,0 0.0713,-0.0356 -0.0564,-0.18272 0,-0.23907 0.10018,-0.10018 0.57232,-0.16662 0.71721,-0.23907 0.2016,-0.1008 0.27654,-0.37734 0.47813,-0.47814 0.14256,-0.0713 0.33559,0.0713 0.47814,0 0.5286,-0.26429 0.0742,-0.14837 0.23907,-0.47814 0.49747,-0.99494 -0.0165,0.25558 0.47814,-0.23906 0.0564,-0.0564 -0.0564,-0.18272 0,-0.23907 0.19922,-0.19923 0.75705,-0.0399 0.95627,-0.23907 0.0564,-0.0564 -0.0563,-0.18272 0,-0.23907 0.1127,-0.1127 0.36544,0.1127 0.47814,0 0.0563,-0.0564 -0.0564,-0.18272 0,-0.23907 0.1127,-0.11269 0.36544,0.1127 0.47814,0 0.0563,-0.0564 -0.0564,-0.18272 0,-0.23906 0.11269,-0.1127 0.31875,0 0.47813,0 0.63051,0 2.06192,-0.28392 2.62976,0 0.49501,0.2475 0.94524,0.47261 1.43441,0.7172 0.25501,0.1275 0.70127,-0.1275 0.95627,0 0.1008,0.0504 0.13216,0.20343 0.23907,0.23907 0.38055,0.12685 1.1189,-0.0764 1.43441,0.23907 0.0957,0.0957 0.12948,0.3038 0.47814,0.47813 0.14255,0.0713 0.36544,-0.11269 0.47814,0 0.0563,0.0564 -0.0564,0.18272 0,0.23907 0.096,0.096 1.36475,0.0847 1.67348,0.23907 0.0713,0.0356 -0.0564,0.18272 0,0.23907 0.10018,0.10018 0.57231,0.16662 0.7172,0.23907 0.2016,0.1008 0.27654,0.37734 0.47814,0.47814 0.14434,0.0722 0.60669,-0.11052 0.71721,0 0.0563,0.0563 -0.0564,0.18271 0,0.23906 0.1127,0.1127 0.33558,-0.0713 0.47813,0 0.29955,0.14978 0.22872,0.47297 0.71721,0.71721 0.14255,0.0713 0.36544,-0.1127 0.47814,0 0.11269,0.1127 -0.1127,0.36544 0,0.47814 0.0564,0.0564 0.18272,-0.0564 0.23906,0 0.1127,0.1127 -0.11269,0.36544 0,0.47813 0.49465,0.49465 -0.0193,-0.75587 0.47814,0.23907 0.22859,0.45718 0.2464,0.97094 0.47814,1.43441 0.0713,0.14256 -0.0713,0.33559 0,0.47814 0.1008,0.2016 0.40686,0.26431 0.47814,0.47814 0.13512,0.40537 0,1.24362 0,1.67348 0,0.81089 0.25416,2.10633 0,2.86882 -0.14867,0.44601 -0.29777,0.59554 -0.47814,0.95628 -0.0713,0.14255 0.0713,0.33558 0,0.47813 -0.0504,0.1008 -0.20343,0.13216 -0.23907,0.23907 -0.11543,0.34628 -0.0697,0.85668 -0.23907,1.19534 -0.1008,0.20161 -0.40686,0.26431 -0.47814,0.47814 -0.0504,0.1512 0.0713,0.33558 0,0.47814 -0.0356,0.0713 -0.18271,-0.0564 -0.23906,0 -0.0563,0.0564 0.0356,0.16779 0,0.23907 -0.0504,0.1008 -0.20343,0.13215 -0.23907,0.23907 -0.0504,0.1512 0.0504,0.32693 0,0.47813 -0.0633,0.18986 -0.71196,0.46764 -0.71721,0.47814 -0.0956,0.19126 0.0956,0.52595 0,0.71721 -0.49747,0.99494 0.0165,-0.25558 -0.47813,0.23906 -0.10019,0.10018 -0.16663,0.57232 -0.23907,0.71721 -0.20494,0.40988 -0.46381,0.098 -0.71721,0.47814 -0.13978,0.20967 -0.0609,0.53901 -0.23907,0.7172 -0.17922,0.17922 -0.84235,0.13637 -0.95627,0.47814 -0.0504,0.1512 0.0884,0.34553 0,0.47814 -0.0148,0.67315 -0.53902,0.0609 -0.71721,0.23907 -0.044,0.044 -0.19501,0.67315 -0.23907,0.7172 -0.0793,0.0793 -0.81511,0.40756 -0.95627,0.47814 -0.37848,0.18924 -0.6026,0.72049 -0.95628,0.95627 -0.32443,0.2163 -0.66291,0.33146 -0.95627,0.47814 -0.26882,0.13441 -0.43402,0.62281 -0.71721,0.71721 -0.1512,0.0504 -0.32693,-0.0504 -0.47813,0 -0.25547,0.0851 -1.07275,0.95015 -1.19534,1.19534 -0.1551,0.31019 -0.31666,0.63331 -0.47814,0.95627 -0.15938,0.31876 0.15938,0.87659 0,1.19535 -0.0356,0.0713 -0.18272,-0.0564 -0.23907,0 -0.15938,0.15938 0.15938,0.79689 0,0.95627 -0.0564,0.0564 -0.18272,-0.0563 -0.23907,0 -0.16905,0.16905 0.0756,0.49041 0,0.71721 -0.0713,0.21383 -0.37734,0.27653 -0.47814,0.47813 -0.17115,0.34231 0,1.2574 0,1.67348 0,0.63476 -0.21085,3.16432 0,3.58603 0.37697,0.75393 1.25069,4.99277 0.23907,5.49858 -0.41454,0.20727 -0.70926,0.95363 -1.43441,1.19534 -0.16053,0.0535 -4.78417,0.35721 -5.02044,0.23907 -0.71415,-0.35707 -1.02375,-0.0225 -1.67348,-0.23907 -0.20458,-0.0682 -1.04236,-0.56422 -1.19534,-0.7172 -0.0564,-0.0564 0.0713,-0.20343 0,-0.23907 -0.14255,-0.0713 -0.33559,0.0713 -0.47814,0 -0.0466,-0.0233 -0.18719,-0.42627 -0.23907,-0.47814 -0.0563,-0.0563 -0.16779,0.0356 -0.23907,0 -0.10487,-0.0524 -1.4287,-1.18393 -1.43441,-1.19534 -0.12644,-0.25289 -0.16418,-0.7993 -0.47814,-0.95627 -0.0713,-0.0356 -0.18272,0.0563 -0.23906,0 -0.10019,-0.10019 -0.16663,-0.57232 -0.23907,-0.71721 -0.14344,-0.28688 -0.57377,-0.43032 -0.71721,-0.71721 -0.1844,-0.3688 -0.18368,-1.37903 -0.47814,-1.67348 -0.39712,-0.39712 -0.47353,-0.22986 -0.7172,-0.7172 -0.0713,-0.14256 0.1127,-0.36544 0,-0.47814 -0.0373,-0.0373 -0.67993,-0.44086 -0.71721,-0.47814 -0.11269,-0.1127 0.0713,-0.33558 0,-0.47813 -0.031,-0.0619 -1.49948,-1.34742 -1.67348,-1.43442 -0.0713,-0.0356 -0.20343,0.0713 -0.23907,0 -0.22806,-0.45613 0.27397,-0.46069 -0.23907,-0.7172 -0.31851,-0.15926 -0.90957,-0.43144 -1.19534,-0.71721 -0.0563,-0.0564 0.0564,-0.18272 0,-0.23907 -0.0563,-0.0564 -0.18272,0.0564 -0.23907,0 -0.0563,-0.0564 0.0564,-0.18272 0,-0.23906 -0.0563,-0.0564 -0.18272,0.0563 -0.23906,0 -0.0563,-0.0564 0.0356,-0.1678 0,-0.23907 -0.22222,-0.44443 -0.83647,-0.77684 -1.19535,-0.95628 -0.44013,-0.22006 -0.038,-0.49714 -0.47813,-0.7172 -0.14435,-0.0722 -0.6067,0.11051 -0.71721,0 -0.098,-0.098 -0.60023,-1.07666 -0.95628,-1.19535 -0.15119,-0.0504 -0.33558,0.0713 -0.47813,0 -0.0713,-0.0356 0.0564,-0.18272 0,-0.23907 -0.0563,-0.0563 -0.18272,0.0563 -0.23907,0 -0.0563,-0.0563 0.0356,-0.16779 0,-0.23906 -0.16874,-0.33748 -0.47061,-0.35485 -0.71721,-0.47814 -0.32019,-0.1601 -0.33126,-0.57033 -0.47813,-0.71721 -0.126,-0.126 -0.35214,-0.11306 -0.47814,-0.23906 -0.0563,-0.0564 0.0563,-0.18273 0,-0.23907 -0.0563,-0.0564 -0.16779,0.0356 -0.23907,0 -0.52859,-0.2643 -0.0742,-0.14838 -0.23907,-0.47814 -0.11552,-0.23105 -0.72523,-0.84075 -0.95627,-0.95628 -0.0713,-0.0356 -0.18272,0.0564 -0.23907,0 -0.35162,-0.35161 -0.99117,-1.26513 -1.19534,-1.67347 -0.36724,-0.73447 -0.13485,0.3954 -0.71721,-0.47814 -0.0884,-0.13261 0.0713,-0.33559 0,-0.47814 -0.0145,-0.029 -0.6785,-0.20036 -0.7172,-0.23907 -0.16537,-0.16537 -0.25195,-0.61698 -0.47814,-0.95627 0.0239,-0.47361 -0.35214,-0.11307 -0.47814,-0.23907 -0.0563,-0.0564 0.0356,-0.16779 0,-0.23907 -0.18059,-0.36117 -0.82961,-0.57628 -0.95627,-0.95627 -0.0504,-0.1512 0.0504,-0.32694 0,-0.47814 -0.1355,-0.4065 -0.78752,-0.30938 -0.95628,-0.47814 -0.126,-0.126 -0.11307,-0.35213 -0.23907,-0.47813 -0.16975,-0.16976 -0.67473,-0.43567 -0.717201,-0.47814 -0.05635,-0.0564 0.05635,-0.18272 0,-0.23907 -0.112699,-0.1127 -0.335584,0.0713 -0.478139,0 -0.743628,-0.37181 -1.667674,-0.59477 -2.390685,-0.95628 -0.327758,-0.16388 -1.189186,0.24523 -1.434412,0 -0.05635,-0.0563 0.05635,-0.18271 0,-0.23906 -0.169048,-0.16905 -0.478137,0 -0.717206,0 -1.073076,0 -2.541149,-0.26122 -3.586028,0 -0.109334,0.0273 -0.138268,0.18866 -0.239069,0.23906 -0.189024,0.0945 -3.081592,0.0663 -3.346961,0 -0.172871,-0.0432 -0.305266,-0.19585 -0.478137,-0.23906 -0.301008,-0.0753 -0.909365,0.14298 -1.195342,0 -1.094124,-0.54707 1.014468,0.0991 -0.717206,-0.47814 -0.347684,-0.11589 -0.871831,0.16175 -1.195343,0 -0.314467,-0.15724 -0.632965,-0.37037 -0.956275,-0.47814 -0.229587,-0.0765 -0.726824,0.11472 -0.956273,0 -0.356547,-0.17827 -0.591587,-0.53486 -0.956276,-0.7172 -0.435522,-0.21776 -1.159541,0.0716 -1.434409,-0.47814 -0.207807,-0.41561 0.438407,-0.82361 0.717206,-1.19534 z"
       id="excess" /><path
       d="m 68.134544,160.89315 c -0.08176,-0.39615 -0.827339,-3.23682 -0.478136,-3.58603 0.05635,-0.0563 0.20343,0.0713 0.239069,0 0.160449,-0.32089 -0.114588,-0.85157 0,-1.19534 0.05635,-0.16905 0.182719,-0.30909 0.239067,-0.47813 0.136647,-0.40994 -0.191299,-1.05182 0,-1.43442 0.03564,-0.0713 0.182721,0.0564 0.23907,0 0.206978,-0.20697 -0.139065,-0.91721 0,-1.19534 0.277947,-0.5559 0.439258,-1.11758 0.717206,-1.67348 0.0944,-0.18879 -0.06721,-0.51559 0,-0.7172 0.162562,-0.48769 0.51214,-0.78522 0.717206,-1.19535 0.07217,-0.14434 -0.110514,-0.60669 0,-0.7172 0.05635,-0.0564 0.182718,0.0564 0.239067,0 0.11476,-0.11476 0.329953,-0.80809 0.478139,-0.95628 0.05635,-0.0564 0.182718,0.0563 0.239067,0 0.169047,-0.16905 -0.106913,-0.50337 0,-0.7172 0.03564,-0.0713 0.182721,0.0563 0.239069,0 0.216757,-0.21676 0.0031,-0.24063 0.478137,-0.47814 0.593666,-0.29683 -0.103029,-0.20406 0.239069,-0.71721 0.09884,-0.14826 0.329872,-0.14022 0.478137,-0.23907 0.353679,-0.23578 0.577789,-0.76703 0.956275,-0.95627 0.07128,-0.0356 0.182719,0.0563 0.239067,0 0.05635,-0.0564 -0.05635,-0.18272 0,-0.23907 0.07969,-0.0797 0.637516,-0.15938 0.717206,-0.23907 0.126,-0.126 0.11307,-0.35213 0.23907,-0.47813 0.215892,-0.2159 0.910497,-0.33572 1.195342,-0.47814 0.348663,-0.17433 0.382445,-0.38245 0.478137,-0.47814 0.05635,-0.0564 0.182721,0.0564 0.239069,0 0.05635,-0.0564 -0.05635,-0.18272 0,-0.23907 0.119534,-0.11953 0.59767,0.11954 0.717206,0 0.05635,-0.0564 -0.05635,-0.18272 0,-0.23906 0.110511,-0.11052 0.572863,0.0722 0.717206,0 0.100799,-0.0504 0.132154,-0.20343 0.239067,-0.23907 0.151202,-0.0504 0.335585,0.0713 0.478139,0 0.159377,-0.0797 0.07969,-0.39845 0.239067,-0.47814 0.07128,-0.0356 0.15938,0 0.23907,0 0.15938,0 0.335584,0.0713 0.478136,0 0.07128,-0.0356 -0.05635,-0.18272 0,-0.23907 0.239581,-0.23958 1.114621,0.1599 1.434412,0 0.306115,-0.15306 0.637514,-0.37188 0.956273,-0.47814 0.645486,-0.21516 1.506133,0.21517 2.151618,0 0.106916,-0.0356 0.138269,-0.18867 0.23907,-0.23907 0.07128,-0.0356 0.159377,0 0.239067,0 0.15938,0 0.335584,0.0713 0.478139,0 0.07128,-0.0356 -0.05635,-0.18271 0,-0.23906 0.19358,-0.19359 1.156227,0.0927 1.434409,0 0.106916,-0.0356 0.138269,-0.18867 0.23907,-0.23907 0.43711,-0.21856 1.20882,0.15488 1.673479,0 0.106915,-0.0356 0.132154,-0.20343 0.23907,-0.23907 0.2268,-0.0756 0.548158,0.16905 0.717206,0 0.09569,-0.0957 0.129473,-0.30381 0.478136,-0.47814 0.318759,-0.15938 0.876586,0.15938 1.195343,0 0.100801,-0.0504 0.132154,-0.20343 0.239069,-0.23907 0.392933,-0.13097 1.063146,0.18564 1.434412,0 0.476507,-0.23825 0.957903,-0.23988 1.43441,-0.47813 0.318759,-0.15938 0.876585,0.15938 1.195345,0 0.278484,-0.13925 0.438721,-0.3389 0.717203,-0.47814 0.301406,-0.1507 0.874686,-0.0787 1.195345,-0.23907 0.156546,-0.0783 0.888937,-0.58253 0.956273,-0.71721 0.03564,-0.0713 -0.05635,-0.18272 0,-0.23906 0.100179,-0.10019 0.572315,-0.16663 0.717206,-0.23907 0.01379,-0.007 1.638787,-1.39972 1.673477,-1.43441 0.18709,-0.18709 0.14553,-0.62366 0.23907,-0.71721 0.1127,-0.1127 0.33559,0.0713 0.47814,0 0.51076,-0.25538 0.25424,-0.73238 0.47814,-0.95627 0.49464,-0.49465 -0.0193,0.75587 0.47813,-0.23907 0.0356,-0.0713 -0.0563,-0.18272 0,-0.23907 0.0564,-0.0564 0.20343,0.0713 0.23907,0 0.12637,-0.25274 0.1052,-0.68853 0.23907,-0.95628 0.127,-0.254 0.35114,-0.22413 0.47814,-0.47813 0.0356,-0.0713 -0.0564,-0.18272 0,-0.23907 0.0563,-0.0564 0.18272,0.0564 0.23907,0 0.13141,-0.13142 0.13864,-0.9945 0.23907,-1.19534 0.57509,-1.15019 -0.097,0.67205 0.47813,-0.47814 0.16672,-0.33344 0.12726,-1.56167 0.23907,-1.67348 0.0563,-0.0564 0.20343,0.0713 0.23907,0 0.0713,-0.14255 -0.0504,-0.32694 0,-0.47814 0.0356,-0.10691 0.18867,-0.13827 0.23907,-0.23907 0.11572,-0.23145 -0.0122,-0.45386 0.23907,-0.95627 0.19125,-0.38251 -0.19126,-1.0519 0,-1.43441 0.0356,-0.0713 0.18272,0.0563 0.23906,0 0.18954,-0.18954 -0.12162,-0.9521 0,-1.19535 0.20555,-0.4111 0.27259,-0.78424 0.47814,-1.19534 0.23332,-0.46664 -0.35106,-1.80056 0,-2.15162 0.0563,-0.0564 0.18272,0.0563 0.23907,0 0.25617,-0.25616 -0.12371,-1.54142 0,-1.91255 0.0356,-0.10691 0.18867,-0.13826 0.23907,-0.23906 0.3142,-0.6284 -0.22291,-1.72198 0,-2.39069 0.40324,-1.20973 -0.065,-2.73874 0.47814,-3.8251 0.14864,-0.29728 0.14222,-2.10624 0,-2.39068 -0.1616,-0.3232 -0.47814,-1.10067 -0.47814,-1.43441 0,-0.86912 0.23425,-5.50822 0,-5.97672 -0.13924,-0.27848 -0.3389,-0.43872 -0.47814,-0.7172 -0.0713,-0.14256 0.1127,-0.36544 0,-0.47814 -0.14687,-0.14688 -0.55711,-0.15794 -0.7172,-0.47814 -0.0713,-0.14255 0.11269,-0.36544 0,-0.47813 -0.0563,-0.0564 -0.18272,0.0563 -0.23907,0 -0.0957,-0.0957 -0.12948,-0.30381 -0.47814,-0.478141 -0.10888,-0.05444 -3.34282,-0.0021 -3.34696,0 -0.0713,0.03564 0.0564,0.182718 0,0.239067 -0.2144,0.214404 -2.655897,-0.212926 -2.868823,0 -0.05635,0.05635 0.05635,0.182724 0,0.239074 -0.119533,0.11953 -0.59767,-0.11954 -0.717206,0 -0.05635,0.0563 0.05635,0.18271 0,0.23906 -0.112696,0.1127 -0.365437,-0.11269 -0.478136,0 -0.05635,0.0563 0.05635,0.18272 0,0.23907 -0.1127,0.1127 -0.36544,-0.11269 -0.478137,0 -0.05635,0.0564 0.05635,0.18272 0,0.23907 -0.159379,0.15938 -0.796896,-0.15938 -0.956275,0 -0.05635,0.0564 0.05635,0.18272 0,0.23907 -0.03726,0.0373 -0.919017,0.0373 -0.956273,0 -0.05635,-0.0563 0.05635,-0.18272 0,-0.23907 -0.206867,-0.20687 -1.175875,0.12927 -1.434412,0 -0.242491,-0.12124 0.286887,-0.23907 -0.478137,-0.23907 -0.334102,0 -1.158293,-0.13806 -1.434412,0 -0.07128,0.0356 0.05635,0.18272 0,0.23907 -0.05168,0.0517 -2.943987,0.0376 -3.346961,0.23907 -0.07128,0.0356 0,0.15938 0,0.23907 -0.07969,0.0797 -0.138268,0.18867 -0.239069,0.23907 -0.531701,0.26585 -1.141778,0.45135 -1.673479,0.7172 -0.994947,0.49748 0.255572,-0.0165 -0.23907,0.47814 -0.112696,0.1127 -0.365437,-0.1127 -0.478136,0 -0.05635,0.0563 0.05635,0.18272 0,0.23907 -0.186886,0.18688 -0.415896,-0.20795 -0.478137,-0.23907 -0.142552,-0.0713 -0.365439,0.1127 -0.478136,0 -0.494641,-0.49464 0.755878,0.0193 -0.23907,-0.47814 -0.142552,-0.0713 -0.335584,0.0713 -0.478136,0 -1.36819,-0.68409 -4.01111,-0.0265 -5.02044,0.47814 -0.144343,0.0722 -0.606695,-0.11051 -0.717206,0 -0.05635,0.0563 0.05635,0.18272 0,0.23907 -0.119536,0.11953 -0.597672,-0.11954 -0.717206,0 -0.05635,0.0563 0.05635,0.18272 0,0.23907 -0.138565,0.13856 -0.81771,0.33957 -0.956275,0.47813 -0.05635,0.0564 0.05635,0.18272 0,0.23907 -0.156729,0.15673 -0.836502,0.1193 -0.956273,0.23907 -0.100182,0.10018 -0.166624,0.57232 -0.23907,0.71721 -0.497472,0.99494 0.01651,-0.25558 -0.478136,0.23906 -0.243716,0.24372 0.263244,0.46605 -0.23907,0.71721 -0.43163,0.21582 -0.378494,-0.37849 -0.478136,-0.47814 -0.1127,-0.11269 -0.335585,0.0713 -0.478137,0 -0.100801,-0.0504 -0.138268,-0.18866 -0.239069,-0.23907 -0.200229,-0.10011 -2.253681,-0.137 -2.390685,0 -0.05635,0.0564 0.05635,0.18272 0,0.23907 -0.119536,0.11954 -0.597673,-0.11953 -0.717206,0 -0.0084,0.008 -0.153951,0.63209 -0.23907,0.71721 -0.112697,0.1127 -0.36544,-0.1127 -0.478136,0 -0.119534,0.11953 -0.119534,0.3586 -0.23907,0.47814 -0.07969,0.0797 -0.637516,0.15938 -0.717206,0.23906 -0.494641,0.49465 0.755878,-0.0193 -0.239067,0.47814 -0.142552,0.0713 -0.335584,-0.0713 -0.478136,0 -0.994947,0.49748 0.255571,-0.0165 -0.23907,0.47814 -0.146878,0.14687 -0.557107,0.15794 -0.717206,0.47814 -0.03564,0.0713 0.05635,0.18272 0,0.23907 -0.07969,0.0797 -0.637516,0.15938 -0.717206,0.23906 -0.933021,0.93302 0.05534,0.12839 -0.239067,0.71721 -0.143441,0.28688 -0.573765,0.43032 -0.717206,0.7172 -0.03564,0.0713 0.05635,0.18273 0,0.23907 -0.05635,0.0563 -0.182721,-0.0563 -0.23907,0 -0.05635,0.0563 0.05635,0.18272 0,0.23907 -0.05635,0.0563 -0.182718,-0.0563 -0.239069,0 -0.112697,0.1127 0.07128,0.33559 0,0.47814 -0.497472,0.99494 0.01651,-0.25557 -0.478137,0.23907 -0.112696,0.1127 0.1127,0.36544 0,0.47814 -0.199305,0.1993 -1.102897,-0.14663 -1.195342,-0.23907 -0.05635,-0.0564 0.05635,-0.18272 0,-0.23907 -0.166852,-0.16685 -1.951426,-0.0667 -2.151618,0 -0.340786,0.11359 -0.34425,0.34425 -0.478137,0.47814 -0.112696,0.11269 -0.335584,-0.0713 -0.478136,0 -0.502314,0.25115 0.0046,0.47349 -0.23907,0.7172 -0.156728,0.15673 -0.836501,0.11929 -0.956273,0.23907 -0.112699,0.1127 0.112697,0.36544 0,0.47814 -0.126002,0.126 -0.352139,0.11307 -0.478139,0.23907 -0.119533,0.11953 -0.119533,0.3586 -0.239067,0.47813 -0.07969,0.0797 -0.637516,0.15938 -0.717206,0.23907 -0.07969,0.0797 -0.159379,0.63752 -0.239069,0.71721 -0.05635,0.0563 -0.182719,-0.0563 -0.239067,0 -0.05635,0.0563 0.03564,0.16779 0,0.23906 -0.100801,0.20161 -0.377338,0.27654 -0.478139,0.47814 -0.192752,0.38551 -0.280011,0.79909 -0.478137,1.19535 -0.213066,0.42613 -0.478136,0.94634 -0.478136,1.67347 0,0.23907 -0.23907,0.71721 0,0.71721 0.05313,0 -0.234511,-0.71265 -0.23907,-0.71721 -0.112696,-0.11269 -0.36544,0.1127 -0.478136,0 -0.05635,-0.0563 0.05635,-0.18271 0,-0.23906 -0.04846,-0.0485 -1.146884,-0.0485 -1.195343,0 -0.05635,0.0564 0.05635,0.18272 0,0.23906 -0.146878,0.14688 -0.557106,0.15795 -0.717206,0.47814 -0.102229,0.20446 -0.13684,0.51275 -0.239069,0.71721 -0.143442,0.28688 -0.573765,0.43032 -0.717206,0.7172 -0.07244,0.14489 -0.138888,0.61703 -0.239067,0.71721 -0.494641,0.49464 0.01934,-0.75588 -0.478139,0.23907 -0.03564,0.0713 0.05635,0.18272 0,0.23907 -0.05635,0.0563 -0.182719,-0.0564 -0.239067,0 -0.07969,0.0797 -0.15938,0.63751 -0.23907,0.7172 -0.05635,0.0564 -0.182718,-0.0563 -0.239067,0 -0.112699,0.1127 0.112697,0.36544 0,0.47814 -0.05635,0.0564 -0.182721,-0.0563 -0.239069,0 -0.110514,0.11051 0.07217,0.57286 0,0.71721 -0.0504,0.1008 -0.188669,0.13826 -0.23907,0.23906 -0.07217,0.14435 0.110514,0.6067 0,0.71721 -0.09569,0.0957 -0.303805,0.12947 -0.478136,0.47814 -0.07128,0.14255 0.112699,0.36544 0,0.47814 -0.278914,0.27891 -1.394566,-0.27892 -1.673479,0 -0.109914,0.10991 -0.384136,0.76826 -0.478139,0.95627 -0.07128,0.14255 0.112699,0.36544 0,0.47813 -0.05635,0.0564 -0.167791,-0.0356 -0.239067,0 -0.153943,0.077 -0.38498,0.76996 -0.478137,0.95628 -0.114837,0.22967 -0.159094,1.11537 -0.239069,1.19534 -0.05635,0.0564 -0.182719,-0.0563 -0.23907,0 -0.112697,0.1127 0.112699,0.36544 0,0.47814 -0.05635,0.0563 -0.20343,-0.0713 -0.239067,0 -0.106915,0.21383 0.169045,0.54816 0,0.71721 -0.05635,0.0563 -0.182721,-0.0564 -0.239069,0 -0.351058,0.35105 0.23332,1.68498 0,2.15161 -0.0504,0.1008 -0.203431,0.13216 -0.23907,0.23907 -0.208658,0.62598 0,1.72085 0,2.39069 0,0.15938 -0.112697,0.36544 0,0.47813 0.07969,0.0797 0.318759,0.15938 0.23907,0.23907 -0.119534,0.11954 -0.597673,-0.11953 -0.717206,0 -0.112697,0.1127 0.07128,0.33559 0,0.47814 -0.178274,0.35655 -0.534861,0.59159 -0.717207,0.95627 -0.179667,0.35934 -0.422772,5.60931 -0.239066,5.97672 0.212198,0.4244 0.505004,0.77094 0.717203,1.19534 0.100425,0.20085 0.107651,1.06393 0.23907,1.19534 0.119533,0.11954 0.358603,0.11954 0.478136,0.23907 0.07969,0.0797 0.15938,0.63752 0.23907,0.71721 0.04805,0.0481 0.793392,0.0762 0.956275,0.23907 0.352782,0.35278 -0.874956,2.31425 -0.478139,3.10789 0.273357,0.54671 0.44631,1.13169 0.717206,1.67348 0.134414,0.26882 0.622811,0.43402 0.717206,0.7172 0.0504,0.15121 -0.0504,0.32694 0,0.47814 0.113022,0.33906 0.580414,0.34135 0.717206,0.47814 0.112697,0.1127 -0.07128,0.33558 0,0.47814 0.221287,0.44257 0.744609,0.77201 0.956273,1.19534 0.255381,0.51076 0.73238,0.25424 0.956276,0.47814 0.494641,0.49464 -0.755878,-0.0194 0.239069,0.47814 0.310192,0.15509 0.633304,0.31665 0.956273,0.47813 0.271624,0.13581 0.614646,-0.0513 1.195343,0.23907 0.250817,0.12541 1.004527,-0.19082 1.195342,0 0.151646,0.15164 -0.09952,0.75723 0,0.95627 0.497475,0.99495 -0.01651,-0.25557 0.478139,0.23907 0.07969,0.0797 0.159377,0.63752 0.239067,0.71721 0.154139,0.15414 0.476232,0.15874 0.717206,0.23907 0.283189,0.0944 0.448382,0.58279 0.717206,0.7172 0.608939,0.30447 1.559137,-0.0572 2.151618,0.23907 0.100799,0.0504 0.132154,0.20343 0.239067,0.23907 0.681726,0.22724 1.916303,0 2.629755,0 0.15938,0 0.36544,0.1127 0.478139,0 0.05635,-0.0564 -0.05635,-0.18272 0,-0.23907 0.158544,-0.15854 1.37826,0 1.673479,0 0.557826,0 1.115653,0 1.673479,0 0.15938,0 0.478139,0.15938 0.478139,0 0,-0.10254 -0.741056,0.46621 0.239067,0.95628 0.469315,0.23465 1.386597,-0.0877 1.912548,0 0.40081,0.0668 0.796896,0.15937 1.195343,0.23906 z"
       id="frontal-lobe"
       style="opacity:1" /><path
       d="m 104.47297,99.930666 c 0.34324,1.348944 0.29148,2.547924 0.7172,3.825094 0.15845,0.47533 -0.22214,1.2292 0,1.67348 0.0504,0.1008 0.18867,0.13827 0.23907,0.23907 0.0722,0.14434 -0.11051,0.6067 0,0.71721 0.0564,0.0563 0.18272,-0.0563 0.23907,0 0.15165,0.15164 -0.0995,0.75723 0,0.95627 0.0504,0.1008 0.18867,0.13827 0.23907,0.23907 0.28688,0.57376 -0.28688,1.57785 0,2.15162 0.57742,1.15484 0.23907,3.18218 0.23907,4.5423 0,1.21481 -0.50014,4.5863 -0.95628,5.49858 -0.19073,0.38147 0.2009,2.42886 0,2.62975 -0.0563,0.0564 -0.18271,-0.0563 -0.23906,0 -0.23907,0.23907 0.23906,1.19535 0,1.43441 -0.0563,0.0564 -0.18272,-0.0563 -0.23907,0 -0.19922,0.19923 0.19922,0.99612 0,1.19535 -0.0563,0.0563 -0.18272,-0.0564 -0.23907,0 -0.17887,0.17887 -0.35361,2.74429 -0.71721,3.10789 -0.0563,0.0564 -0.18272,-0.0564 -0.23906,0 -0.30055,0.30054 0.0414,1.63207 -0.23907,1.91255 -0.0564,0.0563 -0.18272,-0.0564 -0.23907,0 -0.1127,0.1127 0.0713,0.33558 0,0.47814 -0.094,0.188 -0.36823,0.84636 -0.47814,0.95627 -0.0563,0.0564 -0.18272,-0.0564 -0.23907,0 -0.15938,0.15938 0.15938,0.79689 0,0.95627 -0.0563,0.0563 -0.18272,-0.0563 -0.23907,0 -0.0797,0.0797 -0.15938,0.63752 -0.23907,0.71721 -0.0563,0.0563 -0.18271,-0.0564 -0.23906,0 -0.16564,0.16564 -0.0734,1.0297 -0.23907,1.19534 -0.15925,0.15925 -0.31889,-0.15925 -0.47814,0 -0.19922,0.19923 -0.0398,0.75705 -0.23907,0.95628 -0.013,0.013 -0.70425,0.46518 -0.717204,0.47813 -0.16564,0.16564 -0.07343,1.02971 -0.239067,1.19535 -0.05635,0.0563 -0.182721,-0.0564 -0.23907,0 -0.119533,0.11953 0.119534,0.59767 0,0.7172 -0.119533,0.11954 -0.358603,0.11954 -0.478136,0.23907 -0.03726,0.0373 -0.03726,0.91902 0,0.95628 0.15875,0.15875 0.319386,-0.15875 0.478136,0 0.05635,0.0563 -0.05635,0.18271 0,0.23906 0.112697,0.1127 0.318757,0 0.478137,0 0.579224,0 1.883844,0.25342 2.390684,0 0.1008,-0.0504 0.13215,-0.20343 0.23907,-0.23906 0.0483,-0.0161 0.87673,0.0795 0.95628,0 0.0563,-0.0564 -0.0564,-0.18273 0,-0.23907 0.11269,-0.1127 0.33558,0.0713 0.47813,0 0.99495,-0.49748 -0.25557,0.0165 0.23907,-0.47814 0.11954,-0.11953 0.59767,0.11953 0.71721,0 0.0563,-0.0563 -0.0563,-0.18272 0,-0.23907 0.12374,-0.12374 0.83253,-0.11533 0.95627,-0.23907 0.49464,-0.49464 -0.75588,0.0193 0.23907,-0.47814 0.14255,-0.0713 0.33558,0.0713 0.47814,0 0.508,-0.254 -0.0299,-0.22413 0.47813,-0.47813 0.33343,-0.16672 0.86192,-0.0724 1.19535,-0.23907 0.99494,-0.49747 -0.25558,0.0165 0.23907,-0.47814 0.16564,-0.16564 1.0297,-0.0734 1.19534,-0.23907 0.0564,-0.0564 -0.0563,-0.18272 0,-0.23907 0.226,-0.226 1.23441,-0.0391 1.43441,-0.23906 0.0957,-0.0957 0.12947,-0.30381 0.47814,-0.47814 0.31123,-0.15562 0.7908,0.0827 1.43441,-0.23907 0.60838,-0.30419 2.17354,0 2.86882,0 0.68749,0 4.15356,-0.19437 4.5423,0 0.28147,0.14073 1.27563,0.55842 1.43442,0.71721 0.0563,0.0564 -0.0564,0.18272 0,0.23906 0.21589,0.2159 0.91049,0.33572 1.19534,0.47814 0.99494,0.49748 -0.25557,-0.0165 0.23907,0.47814 0.15673,0.15673 0.8365,0.11929 0.95627,0.23907 0.11954,0.11953 0.11954,0.3586 0.23907,0.47813 0.1127,0.1127 0.36544,-0.11269 0.47814,0 0.11953,0.11954 0.11953,0.35861 0.23907,0.47814 0.0609,0.0609 1.50097,0.15282 1.67347,0.23907 0.10081,0.0504 0.13827,0.18867 0.23907,0.23907 0.14256,0.0713 0.36544,-0.1127 0.47814,0 0.0563,0.0564 -0.0564,0.18272 0,0.23907 0.42477,0.42477 1.84239,-0.32353 2.15162,-0.47814 0.14434,-0.0722 0.60669,0.11051 0.71721,0 0.0563,-0.0563 -0.0564,-0.18272 0,-0.23907 0.11269,-0.1127 0.33558,0.0713 0.47813,0 0.2016,-0.1008 0.27654,-0.37734 0.47814,-0.47814 0.46495,-0.23247 0.97483,-0.48741 1.43441,-0.7172 0.44013,-0.22006 0.038,-0.49714 0.47814,-0.71721 0.14255,-0.0713 0.33558,0.0713 0.47814,0 0.17329,-0.0866 1.08564,-1.45409 1.19534,-1.67348 0.14344,-0.28688 0.57376,-0.43032 0.7172,-0.7172 0.13414,-0.26827 0.10061,-0.67935 0.23907,-0.95628 0.49748,-0.99494 -0.0165,0.25558 0.47814,-0.23907 0.21311,-0.2131 0.11212,-0.70237 0.23907,-0.95627 0.094,-0.18801 0.36822,-0.84636 0.47813,-0.95627 0.0564,-0.0564 0.20343,0.0713 0.23907,0 0.0438,-0.0876 -0.10057,-0.85571 0,-0.95628 0.0564,-0.0563 0.18272,0.0564 0.23907,0 0.067,-0.067 0.71721,-1.55422 0.71721,-1.67348 0,-0.38786 0.22165,-1.41699 0.47814,-1.67348 0.0563,-0.0564 0.18271,0.0563 0.23906,0 0.1127,-0.1127 -0.0713,-0.33558 0,-0.47813 0.17258,-0.34517 0.30556,-0.61112 0.47814,-0.95628 0.0722,-0.14434 -0.11051,-0.60669 0,-0.71721 0.1127,-0.11269 0.36544,0.1127 0.47814,0 0.15938,-0.15938 -0.15938,-0.79689 0,-0.95627 0.0564,-0.0563 0.18272,0.0564 0.23907,0 0.11269,-0.1127 -0.0504,-0.32694 0,-0.47814 0.0265,-0.0794 0.42277,-0.90091 0.47813,-0.95627 0.0564,-0.0563 0.18272,0.0564 0.23907,0 0.11051,-0.11052 -0.0722,-0.57286 0,-0.71721 0.2496,-0.49919 0.46761,-0.45708 0.71721,-0.95627 0.14242,-0.28485 0.26224,-0.97945 0.47814,-1.19535 0.0563,-0.0563 0.18271,0.0564 0.23906,0 0.11476,-0.11475 0.32995,-0.80808 0.47814,-0.95627 0.49464,-0.49464 -0.0193,0.75588 0.47814,-0.23907 0.0489,-0.0978 0.067,-1.12838 0,-1.19534 -0.1127,-0.1127 -0.36544,0.1127 -0.47814,0 -0.11953,-0.11953 -0.11953,-0.3586 -0.23907,-0.47814 -0.0797,-0.0797 -0.63751,-0.15938 -0.7172,-0.23907 -0.0564,-0.0563 0.0563,-0.18271 0,-0.23907 -0.39845,-0.39844 -1.99224,0.39845 -2.39069,0 -0.36378,-0.36378 -0.23053,-1.6564 -0.47814,-2.15161 -0.10671,-0.21343 -0.70653,-0.45679 -0.7172,-0.47814 -0.22807,-0.45613 0.27396,-0.46069 -0.23907,-0.7172 -0.33774,-0.16887 -0.48586,-0.008 -0.71721,-0.23907 -0.10018,-0.10018 -0.16662,-0.57232 -0.23907,-0.71721 -0.49747,-0.99495 0.0165,0.25557 -0.47813,-0.23907 -0.0564,-0.0563 0.0356,-0.16779 0,-0.23907 -0.11553,-0.23104 -0.72523,-0.84075 -0.95628,-0.95627 -0.14255,-0.0713 -0.33558,0.0713 -0.47813,0 -0.58274,-0.29137 -1.09075,-0.66491 -1.67348,-0.95627 -0.14256,-0.0713 -0.36544,0.11269 -0.47814,0 -0.0564,-0.0563 0.0563,-0.18273 0,-0.23907 -0.1127,-0.1127 -0.33558,0.0713 -0.47814,0 -0.99494,-0.49748 0.25557,0.0165 -0.23907,-0.47814 -0.11953,-0.11953 -0.3586,-0.11953 -0.47813,-0.23907 -0.0563,-0.0563 0.0564,-0.18272 0,-0.23907 -0.1127,-0.1127 -0.33559,0.0713 -0.47814,0 -0.18801,-0.094 -0.84636,-0.36822 -0.95627,-0.47814 -0.0564,-0.0563 0.0563,-0.18271 0,-0.23906 -0.11954,-0.11954 -0.59768,0.11953 -0.71721,0 -0.0564,-0.0563 0.0563,-0.18272 0,-0.23907 -0.20393,-0.20394 -2.66489,0.20393 -2.86883,0 -0.15164,-0.15165 0.0995,-0.75723 0,-0.95628 -0.16009,-0.32019 -0.57032,-0.33126 -0.7172,-0.47813 -0.1127,-0.1127 0.1127,-0.36544 0,-0.47814 -0.0119,-0.0119 -1.56406,-0.2026 -1.67348,-0.23907 -0.0819,-0.0273 -0.90164,-0.66257 -0.95627,-0.7172 -0.0564,-0.0564 0.0563,-0.18273 0,-0.23907 -0.0564,-0.0564 -0.18272,0.0563 -0.23907,0 -0.0564,-0.0564 0.0563,-0.18272 0,-0.23907 -0.1127,-0.1127 -0.36544,0.1127 -0.47814,0 -0.0563,-0.0564 0.0564,-0.18272 0,-0.23907 -0.0563,-0.0564 -0.16779,0.0356 -0.23907,0 -0.0797,-0.0797 -0.15938,-0.15938 -0.23907,-0.23907 -0.0797,-0.0797 -0.13827,-0.18867 -0.23907,-0.23907 -0.14255,-0.0713 -0.36544,0.1127 -0.47813,0 -0.0564,-0.0563 0.0563,-0.18272 0,-0.23907 -0.0932,-0.0931 -0.81039,0 -0.95628,0 -0.85492,0 -5.03155,-0.23351 -5.49858,0 -0.10079,0.0504 -0.13826,0.18867 -0.23906,0.23907 -0.14256,0.0713 -0.36544,-0.1127 -0.47814,0 -0.0564,0.0564 0.0563,0.18272 0,0.23907 -0.17529,0.17529 -0.64192,-0.0885 -0.71721,-0.23907 -0.0713,-0.14255 0.1127,-0.36544 0,-0.47814 -0.0563,-0.0563 -0.18272,0.0563 -0.23906,0 -0.0563,-0.0563 0.0563,-0.18271 0,-0.23906 -0.0563,-0.0564 -0.1678,0.0356 -0.23907,0 -0.65803,-0.32902 -0.337,-0.47814 -1.19535,-0.47814 -1.58386,0 -2.51406,-0.0617 -3.82509,-0.71721 -0.64079,-0.32039 -2.13923,0.67683 -2.86883,0.23907 -0.34166,-0.205 -0.63751,-0.47813 -0.95627,-0.717204 z"
       id="parietal-lobe" /><path
       d="m 143.91928,116.4264 c -1.18647,0.93939 -0.88616,0.74594 -1.19534,1.67348 -0.16018,0.48054 -0.55702,-0.002 -0.7172,0.47813 -0.0504,0.15121 0.0504,0.32694 0,0.47814 -0.0873,0.262 -0.5622,0.48469 -0.71721,0.71721 -0.36527,0.5479 -0.35194,1.12558 -0.71721,1.67348 -0.12502,0.18754 -0.40686,0.26431 -0.47813,0.47814 -0.0756,0.2268 0.16905,0.54815 0,0.7172 -0.31876,0.31876 -0.2294,-0.50714 -0.47814,0.23907 -0.0906,0.27178 -0.41551,1.84993 -0.47814,1.91255 -0.31875,0.31876 -0.2294,-0.50714 -0.47813,0.23907 -0.0905,0.27148 -0.12598,1.20822 -0.23907,1.43441 -0.24459,0.48917 -0.4697,0.9394 -0.71721,1.43441 -0.18409,0.36819 -0.055,1.06622 -0.23907,1.43441 -0.0504,0.1008 -0.18867,0.13827 -0.23907,0.23907 -0.0713,0.14255 0.1127,0.36544 0,0.47814 -0.49464,0.49464 0.0193,-0.75588 -0.47813,0.23907 -0.0356,0.0713 0.0564,0.18272 0,0.23907 -0.0564,0.0563 -0.20343,-0.0713 -0.23907,0 -0.0713,0.14255 0.0713,0.33558 0,0.47813 -0.0356,0.0713 -0.18272,-0.0564 -0.23907,0 -0.49464,0.49464 0.75588,-0.0193 -0.23907,0.47814 -0.0713,0.0356 -0.18272,-0.0564 -0.23907,0 -0.1127,0.1127 0.0713,0.33558 0,0.47814 -0.17433,0.34866 -0.38244,0.38244 -0.47813,0.47813 -0.23424,0.23424 -0.54362,1.32629 -0.71721,1.67348 -0.49747,0.99495 0.0165,-0.25557 -0.47814,0.23907 -0.11269,0.1127 0.1127,0.36544 0,0.47814 -0.11953,0.11953 -0.3586,0.11953 -0.47813,0.23907 -0.11476,0.11476 -0.32996,0.80809 -0.47814,0.95627 -0.0564,0.0563 -0.18272,-0.0564 -0.23907,0 -0.11953,0.11954 0.11953,0.59767 0,0.71721 -0.0564,0.0564 -0.16779,-0.0356 -0.23907,0 -0.15796,0.079 -0.40524,0.5714 -0.47814,0.7172 -0.15938,0.31876 0.15938,0.87659 0,1.19535 -0.17258,0.34516 -0.30555,0.61111 -0.47813,0.95627 -0.0713,0.14255 0.11269,0.36544 0,0.47814 -0.0563,0.0564 -0.18272,-0.0564 -0.23907,0 -0.26802,0.26801 0.17628,1.32092 0,1.67348 -0.0504,0.1008 -0.18867,0.13827 -0.23907,0.23907 -0.19213,0.38426 0,7.56153 0,8.60647 0,1.65302 -0.42654,5.60177 0.23907,6.93298 0.38251,0.76502 -0.38251,2.10381 0,2.86883 0.20555,0.41109 0.27259,0.78424 0.47814,1.19534 0.0742,0.14836 0,0.84993 0,0.95627 0,0.49689 0.0164,0.25548 0.23906,0.47814 0.15938,0.15938 -0.15938,0.7969 0,0.95628 0.0564,0.0563 0.18273,-0.0563 0.23907,0 0.1127,0.11269 -0.0713,0.33558 0,0.47813 0.1008,0.2016 0.37734,0.27654 0.47814,0.47814 0.0356,0.0713 -0.0564,0.18272 0,0.23907 0.0563,0.0563 0.18272,-0.0564 0.23907,0 0.1127,0.1127 -0.1127,0.36544 0,0.47813 0.0563,0.0564 0.18272,-0.0563 0.23907,0 0.0563,0.0564 -0.0356,0.1678 0,0.23907 0.0673,0.13468 0.79973,0.63894 0.95627,0.71721 0.0713,0.0356 0.20343,-0.0713 0.23907,0 0.0713,0.14255 -0.0713,0.33558 0,0.47814 0.0356,0.0713 0.18272,-0.0563 0.23907,0 0.11953,0.11953 0.11953,0.3586 0.23907,0.47813 0.11269,0.1127 0.33558,-0.0713 0.47813,0 0.40988,0.20494 0.098,0.4638 0.47814,0.71721 0.38698,0.25798 0.83257,0.29675 1.19534,0.47814 0.20161,0.1008 0.27654,0.37733 0.47814,0.47813 0.14255,0.0713 0.33559,-0.0713 0.47814,0 0.47651,0.23826 0.9579,0.23989 1.43441,0.47814 0.19126,0.0956 0.52595,-0.0956 0.71721,0 0.49501,0.24751 0.94523,0.47262 1.43441,0.71721 0.41225,0.20612 2.64964,-0.21918 2.86882,0 0.0563,0.0563 -0.0564,0.18272 0,0.23907 0.0323,0.0322 3.13953,0.46231 3.58603,0.23906 0.1008,-0.0504 0.13827,-0.18867 0.23907,-0.23906 0.14255,-0.0713 0.36544,0.11269 0.47813,0 0.0564,-0.0564 -0.0563,-0.18272 0,-0.23907 0.012,-0.012 2.052,-0.13945 2.39069,-0.47814 0.11954,-0.11954 0.11954,-0.3586 0.23907,-0.47814 0.17892,-0.17892 0.76531,-0.0962 0.95627,-0.47813 0.0713,-0.14256 -0.0713,-0.33559 0,-0.47814 0.0998,-0.19965 0.7024,-0.44853 0.71721,-0.47814 0.0713,-0.14255 -0.0504,-0.32694 0,-0.47814 0.16018,-0.48054 0.55703,0.002 0.7172,-0.47813 0.0504,-0.1512 -0.0713,-0.33559 0,-0.47814 0.0356,-0.0713 0.18273,0.0564 0.23907,0 0.126,-0.126 0.11307,-0.35214 0.23907,-0.47814 0.008,-0.008 0.63209,-0.15395 0.71721,-0.23907 0.1127,-0.11269 -0.0713,-0.33558 0,-0.47813 0.20962,-0.41924 0.74061,-0.76403 0.95627,-1.19534 0.0713,-0.14256 -0.0504,-0.32694 0,-0.47814 0.60387,-1.8116 -0.0863,0.0863 0.47814,-0.47814 0.1127,-0.1127 -0.0713,-0.33558 0,-0.47814 0.0504,-0.1008 0.18867,-0.13827 0.23907,-0.23907 0.0956,-0.19125 -0.0956,-0.52595 0,-0.7172 0.25247,-0.50494 0.12438,-0.7269 0.23907,-0.95628 0.13924,-0.27848 0.33889,-0.43872 0.47813,-0.7172 0.13582,-0.27163 -0.0513,-0.61465 0.23907,-1.19534 0.24256,-0.48511 0,-1.8602 0,-2.39069 0,-0.15938 0.1127,-0.36544 0,-0.47814 -0.0563,-0.0564 -0.18272,0.0563 -0.23907,0 -0.0485,-0.0485 -0.0485,-1.14688 0,-1.19534 0.0564,-0.0563 0.18272,0.0564 0.23907,0 0.0821,-0.0821 0,-4.69946 0,-5.25951 0,-0.56066 -0.0563,0.1127 0.23907,-0.47814 0.30419,-0.60838 0,-2.17354 0,-2.86882 0,-0.23907 0.16905,-0.54816 0,-0.71721 -0.0563,-0.0563 -0.18272,0.0564 -0.23907,0 -0.32055,-0.32055 0.14733,-1.94868 0,-2.39068 -0.0356,-0.10692 -0.18867,-0.13827 -0.23907,-0.23907 -0.1275,-0.25501 0.12751,-0.70127 0,-0.95627 -0.18234,-0.36469 -0.53893,-0.59973 -0.7172,-0.95628 -0.1254,-0.2508 -0.0573,-1.01361 -0.23907,-1.19534 -0.49464,-0.49464 0.0193,0.75588 -0.47814,-0.23907 -0.0722,-0.14434 0.11052,-0.60669 0,-0.7172 -0.11953,-0.11954 -0.3586,-0.11954 -0.47813,-0.23907 -0.013,-0.013 -0.46519,-0.70426 -0.47814,-0.71721 -0.24527,-0.24527 -0.99495,-0.27774 -1.19535,-0.47814 -0.0239,-0.0239 -0.0239,-0.6933 0,-0.7172 0.0564,-0.0564 0.18273,0.0564 0.23907,0 0.11052,-0.11051 -0.0722,-0.57287 0,-0.71721 0.45093,-0.90185 0.32644,-2.36765 0,-3.34696 -0.0956,-0.28688 0.0956,-0.66939 0,-0.95627 -0.12672,-0.38017 -0.53558,-0.59303 -0.7172,-0.95628 -0.0713,-0.14255 0.1127,-0.36544 0,-0.47813 -0.0564,-0.0564 -0.18272,0.0563 -0.23907,0 -0.11051,-0.11052 0.0722,-0.57287 0,-0.71721 -0.0461,-0.0922 -0.81982,-0.64898 -0.95628,-0.71721 -0.14255,-0.0713 -0.36543,0.1127 -0.47813,0 -0.013,-0.013 -0.46518,-0.70425 -0.47814,-0.7172 -0.23907,-0.23907 -1.19534,0.23907 -1.43441,0 -0.0184,-0.0184 0.23907,-1.60269 0.23907,-2.15162 0,-0.52919 0.169,-1.40554 0,-1.91255 -0.0356,-0.10691 -0.20343,-0.13215 -0.23907,-0.23907 -0.0765,-0.22958 0.11472,-0.72682 0,-0.95627 -0.33168,-0.66335 -0.73832,-1.01962 -0.95628,-1.67348 -0.13468,-0.40405 -0.12111,-1.07738 -0.47813,-1.43441 -0.0564,-0.0563 -0.1678,0.0356 -0.23907,0 -0.52859,-0.2643 -0.0742,-0.14838 -0.23907,-0.47814 -0.49747,-0.99494 0.0165,0.25557 -0.47814,-0.23907 -0.008,-0.008 -0.15395,-0.63208 -0.23906,-0.7172 -0.15938,-0.15938 -0.7969,0.15937 -0.95628,0 -0.0563,-0.0563 0.0564,-0.18272 0,-0.23907 -0.1127,-0.1127 -0.33558,0.0713 -0.47814,0 -0.34866,-0.17433 -0.38244,-0.38245 -0.47813,-0.47814 -0.0564,-0.0564 -0.1678,0.0356 -0.23907,0 -0.59675,-0.29837 -0.66047,-0.48217 -1.19535,-1.19534 z"
       id="occipital-lobe" /><path
       d="m 67.656407,159.21968 c -0.602215,-0.72245 -0.628605,-1.25722 -0.956273,-1.91255 -0.255288,-0.51058 0,-3.36043 0,-4.06417 0,-0.15938 -0.112699,-0.36544 0,-0.47814 0.05635,-0.0563 0.20343,0.0713 0.23907,0 0.170995,-0.34199 -0.06128,-0.89499 0.239067,-1.19534 0.05635,-0.0563 0.20343,0.0713 0.239069,0 0.106916,-0.21383 -0.169047,-0.54816 0,-0.7172 0.05635,-0.0564 0.182719,0.0564 0.239067,0 0.151646,-0.15165 -0.09952,-0.75723 0,-0.95628 0.178276,-0.35654 0.534863,-0.59158 0.717206,-0.95627 0.121306,-0.24261 0.191045,-1.14732 0.23907,-1.19535 0.494641,-0.49464 -0.01934,0.75588 0.478136,-0.23906 0.100457,-0.20091 0.100129,-0.81734 0.23907,-0.95628 0.05635,-0.0564 0.182718,0.0563 0.239067,0 0.112699,-0.11269 -0.07128,-0.33558 0,-0.47813 0.497474,-0.99495 -0.01651,0.25557 0.478139,-0.23907 0.01296,-0.013 0.465182,-0.70425 0.478136,-0.71721 0.112699,-0.1127 0.335584,0.0713 0.478137,0 0.29955,-0.14978 0.228721,-0.47296 0.717206,-0.71721 0.284845,-0.14242 0.97945,-0.26224 1.195342,-0.47813 0.146878,-0.14688 0.157941,-0.55711 0.478139,-0.71721 0.175885,-0.0879 0.879473,-0.16227 0.956273,-0.23907 0.119534,-0.11953 0.119534,-0.3586 0.23907,-0.47813 0.112696,-0.1127 0.335584,0.0713 0.478136,0 0.335577,-0.16779 1.363626,-0.40735 1.434412,-0.47814 0.05635,-0.0564 -0.07128,-0.20343 0,-0.23907 0.191254,-0.0956 0.52595,0.0956 0.717206,0 0.491694,-0.24585 0.889416,-0.53554 1.43441,-0.7172 0.135212,-0.0451 0.621188,0.096 0.717206,0 0.05635,-0.0564 -0.07128,-0.20343 0,-0.23907 0.142555,-0.0713 0.326937,0.0504 0.478139,0 0.316018,-0.10534 0.651539,-0.56484 0.956273,-0.71721 0.271862,-0.13593 0.614225,0.0515 1.195342,-0.23907 0.142553,-0.0713 0.335585,0.0713 0.478137,0 0.348123,-0.17406 0.511857,-0.13639 0.717206,-0.23907 0.201602,-0.1008 0.276537,-0.37733 0.478139,-0.47813 0.144343,-0.0722 0.606692,0.11051 0.717206,0 0.05635,-0.0564 -0.05635,-0.18272 0,-0.23907 0.278913,-0.27892 1.394566,0.27891 1.673479,0 0.05635,-0.0564 -0.05635,-0.18272 0,-0.23907 0.15938,-0.15938 0.796896,0.15938 0.956273,0 0.05635,-0.0564 -0.05635,-0.18272 0,-0.23907 0.209222,-0.20922 0.928534,-0.15013 1.195345,-0.23907 0.106913,-0.0356 0.138269,-0.18867 0.239067,-0.23907 0.377751,-0.18887 1.023879,-0.10222 1.434412,-0.23906 0.785381,-0.2618 1.464241,-0.61259 2.151618,-0.95628 0.255006,-0.1275 0.701268,0.1275 0.956273,0 0.887727,-0.44386 1.672582,-0.47769 2.629755,-0.95627 0.218792,-0.1094 0.794067,0.1622 0.956275,0 0.05635,-0.0564 -0.05635,-0.18272 0,-0.23907 0.190815,-0.19082 0.944526,0.12541 1.195343,0 0.476506,-0.23825 0.957905,-0.23989 1.434412,-0.47814 0.07128,-0.0356 0.159377,0 0.239067,0 0.159384,0 0.335584,0.0713 0.478134,0 0.0713,-0.0356 -0.0563,-0.18272 0,-0.23907 0.225287,-0.22529 2.879517,0.22838 3.107897,0 0.0563,-0.0564 -0.0564,-0.18272 0,-0.23907 0.30644,-0.30644 1.50939,0.20158 1.91254,0 0.5807,-0.29034 0.92372,-0.10325 1.19535,-0.23907 0.1008,-0.0504 0.13215,-0.20343 0.23906,-0.23906 0.22959,-0.0765 0.72683,0.11472 0.95628,0 0.1008,-0.0504 0.13827,-0.18867 0.23907,-0.23907 0.32776,-0.16388 1.18918,0.24522 1.43441,0 0.0564,-0.0563 -0.0563,-0.18272 0,-0.23907 0.0709,-0.0709 6.18636,0 6.69392,0 1.43028,0 4.35871,-0.33087 5.49858,0.23907 0.81017,0.40508 3.01434,-0.40538 3.8251,0 0.4765,0.23825 0.9579,0.23988 1.4344,0.47813 0.25501,0.12751 0.70127,-0.1275 0.95628,0 0.1008,0.0504 0.13215,0.20343 0.23907,0.23907 0.46223,0.15408 2.05936,-0.33132 2.39069,0 0.0563,0.0563 -0.0564,0.18272 0,0.23907 0.11051,0.11051 0.57286,-0.0722 0.7172,0 0.99495,0.49748 -0.25557,-0.0165 0.23907,0.47814 0.1127,0.1127 0.36544,-0.1127 0.47814,0 0.013,0.013 0.46518,0.70425 0.47813,0.7172 0.1127,0.1127 0.36544,-0.11269 0.47814,0 0.1127,0.1127 -0.1127,0.36544 0,0.47814 0.0563,0.0564 0.18272,-0.0563 0.23907,0 0.21793,0.21794 0,1.80919 0,2.15162 0,0.4436 0.0493,4.49296 0,4.5423 -0.0564,0.0563 -0.18272,-0.0564 -0.23907,0 -0.0932,0.0931 0,0.81039 0,0.95628 0,0.88989 -0.89932,2.74366 -0.47814,3.58602 0.19359,0.38718 0.58684,0.80423 0.71721,1.19535 0.0765,0.22959 -0.11473,0.72682 0,0.95627 0.34481,0.68963 0.23907,1.56307 0.23907,2.39069 0,0.63051 -0.28392,2.06192 0,2.62975 0.15306,0.30612 0.37188,0.63752 0.47814,0.95628 0.11953,0.3586 -0.11954,0.83674 0,1.19534 0.0356,0.10692 0.18866,0.13827 0.23906,0.23907 0.0708,0.14161 0.14362,2.00799 0,2.15162 -0.0564,0.0563 -0.18272,-0.0564 -0.23906,0 -0.11954,0.11953 0.11953,0.59767 0,0.7172 -0.0564,0.0564 -0.18273,-0.0563 -0.23907,0 -0.0797,0.0797 -0.15938,0.63752 -0.23907,0.71721 -0.0564,0.0563 -0.18272,-0.0564 -0.23907,0 -0.11977,0.11977 -0.0823,0.79954 -0.23907,0.95627 -0.1127,0.1127 -0.36544,-0.1127 -0.47814,0 -0.1127,0.1127 0.0713,0.33558 0,0.47814 -0.16148,0.32297 -0.32304,0.64608 -0.47813,0.95627 -0.1008,0.2016 -0.37734,0.27654 -0.47814,0.47814 -0.0356,0.0713 0.0564,0.18272 0,0.23907 -0.0564,0.0563 -0.18272,-0.0564 -0.23907,0 -0.0564,0.0563 0.0564,0.18272 0,0.23907 -0.49464,0.49464 0.0193,-0.75588 -0.47814,0.23906 -0.0356,0.0713 0.0564,0.18273 0,0.23907 -0.0564,0.0564 -0.18272,-0.0563 -0.23906,0 -0.0564,0.0564 0.0563,0.18272 0,0.23907 -0.20522,0.20521 -0.78267,0.13092 -0.95628,0.47814 -0.16887,0.33774 -0.008,0.48586 -0.23907,0.71721 -0.0768,0.0768 -0.78039,0.15112 -0.95627,0.23906 -0.99495,0.49748 0.25557,-0.0165 -0.23907,0.47814 -0.23135,0.23135 -0.37947,0.0702 -0.71721,0.23907 -0.37946,0.18973 -0.55944,0.79851 -0.7172,0.95627 -0.23907,0.23907 -0.95628,0 -1.19534,0.23907 -0.19108,0.19108 -0.26579,0.73057 -0.71721,0.95628 -0.14256,0.0713 -0.33558,-0.0713 -0.47814,0 -0.15655,0.0783 -0.88894,0.58253 -0.95627,0.7172 -0.0356,0.0713 0.0713,0.20343 0,0.23907 -0.14255,0.0713 -0.33559,-0.0713 -0.47814,0 -0.0713,0.0356 0.0564,0.18272 0,0.23907 -0.0442,0.0443 -0.85311,0.20468 -0.95627,0.23907 -0.74621,0.24873 0.0797,0.15938 -0.23907,0.47814 -0.28312,0.28311 -1.42716,0.47088 -1.67348,0.7172 -0.31876,0.31876 0.50714,0.2294 -0.23907,0.47814 -0.3515,0.11716 -0.86502,0.0739 -1.19535,0.23907 -0.38778,0.19389 -0.78883,0.51395 -1.19534,0.7172 -0.14255,0.0713 -0.33558,-0.0713 -0.47813,0 -0.23718,0.11859 -0.46958,0.3956 -0.71721,0.47814 -0.44985,0.14995 -0.98265,0.0132 -1.43441,0.23907 -0.38718,0.19359 -0.80423,0.58683 -1.19534,0.7172 -0.43033,0.14344 -1.00409,-0.14344 -1.43442,0 -0.61615,0.20539 -1.16837,0.0707 -1.67348,0.23907 -0.10691,0.0356 -0.13215,0.20343 -0.23907,0.23907 -0.28688,0.0956 -0.66939,-0.0956 -0.95627,0 -0.35273,0.11758 -0.65551,0.37788 -0.95627,0.47814 -0.61342,0.20447 -0.78814,-0.0841 -1.43442,0.23907 -0.57953,0.28976 -3.50063,-0.0285 -4.30323,0.23907 -0.30076,0.10025 -0.60354,0.36055 -0.95627,0.47813 -0.23562,0.0785 -1.02045,-0.1749 -1.195347,0 -0.0563,0.0564 0.0756,0.21387 0,0.23907 -1.353939,0.45132 -3.667628,-0.45093 -5.020437,0 -0.106916,0.0356 -0.138269,0.18867 -0.239067,0.23907 -0.148035,0.074 -5.85184,0.0624 -5.976715,0 -0.100801,-0.0504 -0.132155,-0.20343 -0.23907,-0.23907 -0.278183,-0.0927 -1.24083,0.19358 -1.434412,0 -0.05635,-0.0563 0.05635,-0.18272 0,-0.23907 -0.112697,-0.11269 -0.335584,0.0713 -0.478137,0 -0.348662,-0.17433 -0.382444,-0.38244 -0.478136,-0.47813 -0.112699,-0.1127 -0.335584,0.0713 -0.478136,0 -0.100801,-0.0504 -0.138269,-0.18867 -0.23907,-0.23907 -0.141089,-0.0705 -0.556519,0 -0.717206,0 -0.346215,0 -1.131403,-0.15151 -1.434412,0 -1.286436,0.64322 -2.362081,1.09011 -4.064164,0.23907 -0.100801,-0.0504 -0.132154,-0.20343 -0.23907,-0.23907 -0.428577,-0.14286 -1.286907,0.1475 -1.673479,-0.23907 -0.494641,-0.49464 0.755878,0.0193 -0.239069,-0.47814 -0.142552,-0.0713 -0.36544,0.1127 -0.478137,0 -0.494641,-0.49464 0.755878,0.0193 -0.239069,-0.47814 -0.142552,-0.0713 -0.36544,0.1127 -0.478137,0 -0.100179,-0.10018 -0.166624,-0.57231 -0.239069,-0.7172 -0.497473,-0.99495 0.01651,0.25557 -0.478137,-0.23907 -0.596654,-0.59665 -0.326051,-1.76046 -0.717206,-2.15162 -0.198181,-0.19818 -1.948844,0.20277 -2.390685,-0.23906 -0.05635,-0.0564 0.05635,-0.18273 0,-0.23907 -0.215913,-0.21592 -1.599316,-0.56059 -1.912548,-0.71721 -0.379466,-0.18973 -0.559443,-0.79851 -0.717206,-0.95627 -0.119534,-0.11954 -0.358603,-0.11954 -0.478137,-0.23907 -0.05635,-0.0564 0.03564,-0.1678 0,-0.23907 -0.321805,-0.64361 -0.08346,-1.12318 -0.239069,-1.43441 -0.0504,-0.1008 -0.188669,-0.13827 -0.23907,-0.23907 -0.159377,-0.31876 0.15938,-0.87659 0,-1.19534 -0.03564,-0.0713 -0.182719,0.0563 -0.239067,0 -0.112699,-0.1127 0.07128,-0.33559 0,-0.47814 -0.07511,-0.15022 -0.486653,-0.70869 -0.239069,-0.95628 0.05635,-0.0563 0.182718,0.0564 0.239069,0 0.04405,-0.044 0.195017,-0.67315 0.239067,-0.7172 0.05635,-0.0564 0.182721,0.0563 0.23907,0 0.04846,-0.0485 0.04846,-1.14689 0,-1.19534 -0.05635,-0.0563 -0.182719,0.0563 -0.23907,0 -0.138562,-0.13857 -0.339572,-0.81771 -0.478136,-0.95628 -0.262896,-0.2629 -0.929344,-0.18521 -1.195343,-0.7172 -0.127503,-0.25501 0.127503,-0.70127 0,-0.95628 -0.424206,-0.84841 -0.430816,-0.67886 0.956273,-0.95627 z"
       id="temporal-lobe"
       style="display:inline" /><path
       d="m 67.496059,160.38505 c -0.552579,-0.65164 -1.176932,-0.11927 -1.802079,-0.32765 -0.07327,-0.0244 -0.09475,-0.12929 -0.163825,-0.16383 -0.262123,-0.13105 -0.720833,0.13107 -0.982954,0 -0.31746,-0.15872 -1.838393,-0.63714 -2.129729,-0.49147 -0.36862,0.18431 -0.122856,-0.0205 -0.491476,0.16383 -0.04884,0.0244 0.03861,0.12521 0,0.16382 -0.09373,0.0937 -0.649582,0 -0.819127,0 -0.673467,0 -3.875719,0.19187 -4.25946,0 -0.238927,-0.11946 -0.262076,-0.26208 -0.32765,-0.32765 -0.0049,-0.005 -1.010449,-0.28221 -1.146778,-0.32765 -0.124354,-0.0415 -0.7957,-0.46805 -0.819129,-0.49148 -0.03861,-0.0386 0.04885,-0.1394 0,-0.16382 -0.09768,-0.0488 -0.224038,0.0345 -0.327649,0 -0.236257,-0.0788 -0.240806,-0.36121 -0.327652,-0.49148 -0.08567,-0.12851 -0.241972,-0.19914 -0.32765,-0.32765 -0.03029,-0.0454 0.03861,-0.12521 0,-0.16382 -0.03861,-0.0386 -0.139403,0.0488 -0.163825,0 -0.159215,-0.31844 0.182674,-0.42431 -0.163827,-0.65531 -0.385305,-0.25687 -0.608261,-0.0389 -0.982951,-0.16382 -0.112424,-0.0375 -0.763235,-0.27176 -0.819126,-0.32765 -0.03862,-0.0386 0.04884,-0.13941 0,-0.16383 -0.146531,-0.0733 -0.375634,0.11584 -0.491477,0 -0.10065,-0.10065 -0.10823,-0.38176 -0.327652,-0.49147 -0.151693,-0.0759 -0.466045,-0.30222 -0.655301,-0.49148 -0.122108,-0.12211 -0.04172,-0.36937 -0.163825,-0.49148 -0.115842,-0.11584 -0.344945,0.0733 -0.491477,0 -0.154455,-0.0772 -0.0094,-0.41424 -0.163824,-0.49147 -0.09769,-0.0489 -0.224039,0.0345 -0.327652,0 -0.14019,-0.0467 -0.714288,-0.38664 -0.819127,-0.49148 -0.08634,-0.0863 -0.07748,-0.24131 -0.163824,-0.32765 -0.09257,-0.0926 -0.533263,-0.20561 -0.655302,-0.32765 -0.122039,-0.12204 -0.235085,-0.56273 -0.327652,-0.6553 -0.03861,-0.0386 -0.125211,0.0386 -0.163825,0 -0.03861,-0.0386 0.02442,-0.11498 0,-0.16383 -0.06907,-0.13815 -0.258574,-0.1895 -0.327649,-0.32765 -0.02442,-0.0488 0.03861,-0.12521 0,-0.16382 -0.03862,-0.0386 -0.125211,0.0386 -0.163827,0 -0.161161,-0.16117 -0.06771,-0.6269 -0.163825,-0.81913 -0.141325,-0.28265 -0.186703,-0.53723 -0.327649,-0.81913 -0.103823,-0.20764 0,-0.7457 0,-0.98295 0,-0.41724 0.156527,-1.9805 0,-2.29355 -0.223118,-0.44624 -0.346475,-0.18265 -0.491477,-0.32766 -0.153027,-0.15302 -0.174625,-0.6661 -0.327652,-0.81912 -0.06557,-0.0656 -0.208188,-0.0887 -0.32765,-0.32765 -0.04884,-0.0977 0.04884,-0.22997 0,-0.32765 -0.254833,-0.50967 -0.0034,-0.82924 -0.163824,-1.31061 -0.02442,-0.0733 -0.129289,-0.0948 -0.163828,-0.16382 -0.07326,-0.14653 0.05181,-0.33606 0,-0.49148 -0.09912,-0.29736 -0.22911,-0.42497 -0.327649,-0.81912 -0.251997,-1.008 0.04707,-4.18978 0.491477,-5.07859 0.109214,-0.21844 -0.109218,-0.6007 0,-0.81913 0.119462,-0.23892 0.262075,-0.26208 0.327649,-0.32765 0.05461,-0.0546 0.109217,-0.43687 0.163825,-0.49148 0.03862,-0.0386 0.125211,0.0386 0.163827,0 0.158769,-0.15877 -0.136996,-0.41098 -0.163827,-0.49147 -0.08975,-0.26927 0.127209,-0.72854 0,-0.98295 -0.20682,-0.41364 -0.332883,-1.45874 -0.163825,-1.96591 0.135834,-0.40751 0.151564,-0.79461 0.327652,-1.14678 0.109215,-0.21843 -0.109217,-0.60069 0,-0.81912 0.0947,-0.18942 0.446842,-0.80442 0.491474,-0.98296 0.109945,-0.43977 0.02821,-0.73991 0.163828,-1.14678 0.04884,-0.14652 0.278807,-0.18112 0.327649,-0.32764 0.03454,-0.10362 -0.03454,-0.22404 0,-0.32766 0.02442,-0.0733 0.129289,-0.0948 0.163825,-0.16382 0.09967,-0.19934 0.09008,-0.5979 0.163827,-0.81913 0.09933,-0.29798 0.507394,-1.01479 0.655301,-1.3106 0.148908,-0.29782 0.595051,-0.21561 0.819127,-0.32765 0.03194,-0.016 0.128278,-0.29211 0.163824,-0.32765 0.04337,-0.0434 0.424019,0 0.491477,0 0.414925,0 0.294698,0.68825 0.491477,0.49147 0.07573,-0.0757 -0.04946,-0.39256 0,-0.49147 0.222943,-0.44589 0.202284,-0.93451 0.327649,-1.3106 0.07058,-0.21173 0.862465,-1.06963 0.982954,-1.31061 0.100692,-0.20139 0.0046,-0.49609 0.163825,-0.6553 0.08634,-0.0863 0.226049,-0.0961 0.327652,-0.16383 0.120025,-0.08 0.741352,-0.99123 0.819126,-1.14677 0.104619,-0.20924 0.328382,-0.16456 0.491477,-0.32765 0.129481,-0.12949 0.150053,-0.43228 0.327649,-0.49148 0.103613,-0.0345 0.229965,0.0488 0.327652,0 0.04884,-0.0244 -0.02442,-0.11498 0,-0.16383 0.118967,-0.23793 0.514678,-0.18702 0.655301,-0.32765 0.03861,-0.0386 -0.03862,-0.12521 0,-0.16382 0.173308,-0.17331 0.842661,0.0236 0.982951,0.16382 0.05461,0.0546 0.129289,0.0947 0.163825,0.16383 0.04885,0.0977 -0.109215,0.32765 0,0.32765 0.109217,0 -0.03454,-0.22404 0,-0.32765 0.127585,-0.38275 0.318273,-0.80037 0.491477,-1.14678 0.124068,-0.24813 0.817427,-1.47273 0.982953,-1.63825 0.08635,-0.0863 0.259916,-0.0622 0.32765,-0.16383 0.06058,-0.0909 -0.03454,-0.22404 0,-0.32765 0.07542,-0.22626 0.371051,-0.16708 0.491477,-0.32765 0.176445,-0.23526 0.164525,-0.57444 0.327652,-0.81913 0.163808,-0.24571 0.342222,-0.62012 0.491474,-0.81912 0.185348,-0.24713 0.517152,-0.379 0.655301,-0.6553 0.02442,-0.0489 -0.03861,-0.12522 0,-0.16383 0.338172,-0.33817 1.278895,-0.72136 1.80208,-0.98295 0.131061,-0.0655 0.360415,0.0655 0.491477,0 0.04884,-0.0244 -0.03861,-0.12521 0,-0.16383 0.108643,-0.10864 0.944472,0 1.146778,0 0.110112,0 0.394793,-0.0483 0.491474,0 0.104378,0.0522 0.278469,0.70449 0.491477,0.49148 0.147944,-0.14794 0.230055,-0.62394 0.327652,-0.81913 0.130016,-0.26003 0.54719,-0.38336 0.655301,-0.49148 0.03861,-0.0386 -0.02442,-0.11498 0,-0.16382 0.10971,-0.21942 0.390827,-0.227 0.491477,-0.32765 0.03861,-0.0386 -0.03862,-0.12521 0,-0.16383 0.122108,-0.1221 0.34779,-0.068 0.491474,-0.16382 0.268703,-0.17914 0.05895,-0.31234 0.327652,-0.49148 0.744548,-0.49636 1.367206,-1.25699 2.129729,-1.63825 0.182158,-0.0911 0.363638,-0.6673 0.819127,-0.81913 0.103613,-0.0345 0.224038,0.0345 0.327652,0 0.256987,-0.0857 0.103653,-0.34214 0.327649,-0.49147 0.143685,-0.0958 0.369369,-0.0417 0.491477,-0.16383 0.03862,-0.0386 -0.03861,-0.12521 0,-0.16383 0.07085,-0.0708 1.463619,-0.76091 1.638255,-0.81912 0.655301,-0.21844 -0.273042,0.27304 0.163825,-0.16383 0.06749,-0.0675 1.336608,-0.0754 1.638255,0 0.07492,0.0187 0.09475,0.12929 0.163824,0.16383 0.157184,0.0786 0.309285,-0.009 0.655302,0.16382 0.09769,0.0488 0.250423,-0.0772 0.327649,0 0.08459,0.0846 0.163827,0.29124 0.163827,0.49148 0,0.43687 -0.05461,-0.0546 0.163825,0.16382 0.03861,0.0386 -0.05461,0.16383 0,0.16383 0.110646,0 0.101751,-0.4294 0.163825,-0.49148 0.08191,-0.0819 0.24574,-0.0819 0.327652,-0.16382 0.08208,-0.0821 0.05643,-0.5479 0.163825,-0.6553 0.157829,-0.15783 0.894011,-0.3136 0.982953,-0.49148 0.166328,-0.33266 0.04133,-0.0138 0.491474,-0.16383 0.511353,-0.17045 -0.05461,-0.10921 0.163828,-0.32764 0.159207,-0.15922 0.462229,-0.048 0.655301,-0.16383 0.132445,-0.0795 0.199133,-0.24197 0.32765,-0.32765 0.307898,-0.20527 0.937334,-0.20323 1.310602,-0.32765 0.508397,-0.16947 2.455847,0 3.112683,0 0.09997,0 0.591468,-0.0638 0.655302,0 0.03861,0.0386 -0.03861,0.12521 0,0.16382 0.08191,0.0819 0.409564,-0.0819 0.491476,0 0.111617,0.11162 0.1309,0.62238 0.163825,0.65531 0.08191,0.0819 0.245737,0.0819 0.327652,0.16382 0.109215,0.10922 -0.109217,0.54608 0,0.6553 0.03861,0.0386 0.125212,-0.0386 0.163825,0 0.08175,0.0817 0,0.69085 0,0.81913 0,0.66812 -0.191953,2.20918 0,2.78503 0.02442,0.0733 0.129288,0.0948 0.163825,0.16383 0.138964,0.27792 0,1.58601 0,1.9659 0,0.54902 -0.174681,1.44186 0,1.9659 0.132937,0.39881 0.156069,0.80362 0.327652,1.14678 0.142769,0.28554 -0.134557,1.04149 0.163824,1.63825 0.26212,0.52425 -0.26212,1.44167 0,1.96591 0.427776,0.85555 0.126725,1.32603 0.32765,2.12973 0.163994,0.65597 0.163827,1.26641 0.163827,1.96591 0,0.29456 -0.0926,0.86899 0,1.14677 0.02442,0.0733 0.129286,0.0947 0.163825,0.16383 0.173304,0.34661 -0.123645,0.93967 0,1.3106 0.02442,0.0733 0.129288,0.0948 0.163824,0.16383 0.131633,0.26326 -0.09423,0.70025 0,0.98295 0.03861,0.11584 0.125212,0.21181 0.163825,0.32765 0.095,0.28498 -0.132821,0.71731 0,0.98295 0.03454,0.0691 0.139404,0.0906 0.163828,0.16383 0.174773,0.52432 0,4.07582 0,4.91476 0,1.77367 -0.128167,2.87754 -0.819129,4.25946 -0.04884,0.0977 0.07723,0.25042 0,0.32765 -0.338961,0.33896 0.01326,-0.51798 -0.32765,0.16382 -0.08699,0.17399 -0.01778,0.50927 -0.163824,0.65531 -0.338961,0.33896 0.01326,-0.51798 -0.327652,0.16382 -0.06027,0.12053 -0.111197,0.60267 -0.163825,0.6553 -0.03861,0.0386 -0.125212,-0.0386 -0.163825,0 -0.09495,0.095 -0.232698,0.56035 -0.327652,0.65531 -0.08191,0.0819 -0.245737,0.0819 -0.327649,0.16382 -0.08655,0.0866 -0.404932,0.73258 -0.491477,0.81913 -0.03861,0.0386 -0.114983,-0.0244 -0.163825,0 -0.362228,0.18111 -0.05084,0.10167 -0.163827,0.32765 -0.09617,0.19234 -0.379347,0.27158 -0.491474,0.32765 -0.301607,0.1508 -0.02606,0.34067 -0.327652,0.49148 -0.04884,0.0244 -0.125212,-0.0386 -0.163825,0 -0.03862,0.0386 0.03861,0.12521 0,0.16382 -0.05263,0.0526 -0.534776,0.10356 -0.655302,0.16382 -0.138149,0.0691 -0.189502,0.25858 -0.327652,0.32766 -0.04884,0.0244 -0.125211,-0.0386 -0.163824,0 -0.03861,0.0386 0.04884,0.1394 0,0.16382 -0.146529,0.0733 -0.375635,-0.11584 -0.491477,0 -0.03861,0.0386 0.03861,0.12521 0,0.16383 -0.08191,0.0819 -0.409562,-0.0819 -0.491477,0 -0.33896,0.33896 0.517978,-0.0133 -0.163825,0.32765 -0.09769,0.0488 -0.229962,-0.0488 -0.327649,0 -0.339217,0.16961 -0.64774,0.32387 -0.982953,0.49148 -0.09769,0.0488 -0.229966,-0.0488 -0.32765,0 -0.138149,0.0691 -0.189502,0.25857 -0.327652,0.32764 -0.09769,0.0489 -0.250423,-0.0772 -0.327649,0 -0.03862,0.0386 0.03861,0.12522 0,0.16383 -0.06865,0.0686 -0.39219,0.11418 -0.491477,0.16383 -0.196591,0.0983 -0.294886,0.39318 -0.491477,0.49147 -0.04884,0.0244 -0.125211,-0.0386 -0.163825,0 -0.08191,0.0819 -0.08191,0.24574 -0.163824,0.32765 -0.07723,0.0772 -0.27881,-0.0977 -0.327652,0 -0.144272,0.28855 0.01267,0.31499 -0.163825,0.49148 -0.101547,0.10154 -0.576662,0.24901 -0.655302,0.32765 -0.07723,0.0772 0.07723,0.25042 0,0.32765 -0.06865,0.0686 -0.392189,0.11418 -0.491476,0.16383 -0.06813,0.0341 -1.300885,1.12734 -1.310603,1.14677 -0.04885,0.0977 0.07723,0.25043 0,0.32765 -0.05461,0.0546 -0.436867,0.10922 -0.491477,0.16383 -0.06865,0.0687 -0.114181,0.39219 -0.163825,0.49147 -0.150802,0.30161 -0.340675,0.026 -0.491476,0.32766 -0.04946,0.0989 0.07573,0.41574 0,0.49147 -0.03861,0.0386 -0.125212,-0.0386 -0.163825,0 -0.05461,0.0546 -0.109218,0.43687 -0.163825,0.49148 -0.03862,0.0386 -0.125211,-0.0386 -0.163827,0 -0.09994,0.0999 -0.09815,0.6221 -0.163825,0.81913 -0.02442,0.0733 -0.129289,0.0947 -0.163825,0.16382 -0.084,0.168 -0.07983,0.48731 -0.163824,0.6553 -0.09542,0.19084 -0.232236,0.30064 -0.327652,0.49148 -0.04884,0.0977 0.04884,0.22996 0,0.32765 -0.165288,0.33058 -0.37573,0.63571 -0.491477,0.98295 -0.01101,0.0331 0.05451,0.6008 0,0.6553 -0.03861,0.0386 -0.125212,-0.0386 -0.163825,0 -0.13076,0.13076 0.08594,0.64725 0,0.81913 -0.172143,0.34429 -0.08452,0.4967 -0.163825,0.6553 -0.03454,0.0691 -0.139403,0.0906 -0.163827,0.16383 -0.0582,0.17458 -0.161914,1.96399 -0.163825,1.9659 -0.03861,0.0386 -0.125211,-0.0386 -0.163824,0 -0.236308,0.23631 0.15545,1.16353 0,1.47443 -0.431663,0.86333 -0.348854,1.84449 -0.819127,2.78503 z"
       id="pfc"
       style="opacity:1" /><path
       d="m 70.444915,151.37466 c 0.880702,-0.18956 1.911474,0.21839 2.785033,0 0.07492,-0.0187 0.09056,-0.13941 0.163825,-0.16383 0.19659,-0.0655 0.45871,0.0655 0.655301,0 0.363342,-0.12111 0.67242,-0.17238 0.982954,-0.32765 0.276267,-0.13813 1.100603,0.21 1.310603,0 0.03861,-0.0386 -0.03862,-0.12521 0,-0.16383 0.168854,-0.16885 0.977918,0.005 1.146775,-0.16382 0.03862,-0.0386 -0.03861,-0.12521 0,-0.16383 0.07723,-0.0772 0.229965,0.0489 0.327652,0 0.13815,-0.0691 0.1895,-0.25857 0.32765,-0.32765 0.04884,-0.0244 0.125211,0.0386 0.163827,0 0.03861,-0.0386 -0.03862,-0.12521 0,-0.16382 0.05461,-0.0546 0.436867,-0.10922 0.491474,-0.16383 0.07723,-0.0772 -0.07723,-0.25042 0,-0.32765 0.03862,-0.0386 0.125212,0.0386 0.163828,0 0.03861,-0.0386 -0.02442,-0.11498 0,-0.16382 0.225403,-0.45081 0.327649,-0.21576 0.327649,-0.81913 0,-0.2511 -0.09416,-1.73241 -0.163825,-1.80208 -0.08191,-0.0819 -0.245737,-0.0819 -0.327652,-0.16383 -0.33896,-0.33896 0.517978,0.0133 -0.163825,-0.32765 -0.09891,-0.0495 -0.415745,0.0757 -0.491476,0 -0.490556,-0.49055 0.490558,0.16291 0,-0.32765 -0.07864,-0.0786 -0.553755,-0.2261 -0.655302,-0.32765 -0.03861,-0.0386 0.03862,-0.12521 0,-0.16382 -0.18366,-0.18367 -0.905182,0.12079 -1.146775,0 -0.06907,-0.0345 -0.09475,-0.12929 -0.163828,-0.16383 -0.136398,-0.0682 -0.551383,0.10392 -0.655301,0 -0.03861,-0.0386 0.03862,-0.12521 0,-0.16382 -0.07723,-0.0772 -0.250423,0.0772 -0.32765,0 -0.06557,-0.0656 -0.08872,-0.20819 -0.327652,-0.32765 -0.171868,-0.0859 -0.694592,-0.0393 -0.819126,-0.16383 -0.05461,-0.10922 -0.109217,-0.21843 -0.163825,-0.32765 -0.05461,0 -0.125211,0.0386 -0.163827,0 -0.03861,-0.0386 0.04885,-0.1394 0,-0.16383 -0.09768,-0.0488 -0.229963,0.0488 -0.327649,0 -0.04885,-0.0244 0.03861,-0.12521 0,-0.16382 -0.05461,-0.0546 -0.436867,-0.10922 -0.491477,-0.16383 -0.05461,-0.10921 -0.109217,-0.21843 -0.163825,-0.32765 -0.05461,0 -0.125211,0.0386 -0.163824,0 -0.03862,-0.0386 0.04884,-0.1394 0,-0.16382 -0.09769,-0.0489 -0.224039,0.0345 -0.327653,0 -0.256987,-0.0857 -0.103653,-0.34215 -0.327649,-0.49148 -0.218787,-0.14586 -0.634918,-0.30726 -0.819129,-0.49147 -0.147942,-0.14795 -0.230052,-0.62394 -0.327649,-0.81913 -0.124955,-0.24991 -0.369311,-0.41097 -0.491477,-0.65531 -0.166404,-0.3328 0.0024,-0.97813 -0.163825,-1.3106 -0.02442,-0.0488 -0.125211,0.0386 -0.163824,0 -0.207545,-0.20754 0.323887,-4.00808 0.491474,-4.25946 0.106225,-0.15933 0.431633,-0.31194 0.491477,-0.49147 0.03454,-0.10362 -0.03454,-0.22404 0,-0.32766 0.06273,-0.18818 0.39112,-0.22729 0.491476,-0.32764 0.07723,-0.0772 -0.04884,-0.22997 0,-0.32766 0.153721,-0.30744 0.527355,-0.23558 0.655302,-0.49147 0.02907,-0.0582 0.133585,-0.47636 0.163824,-0.49148 0.09769,-0.0488 0.224039,0.0345 0.327653,0 0.326003,-0.10867 0.07645,-0.1529 0.163824,-0.32765 0.02535,-0.0507 1.07161,-0.94537 1.146778,-0.98295 0.04884,-0.0244 0.125212,0.0386 0.163825,0 0.03861,-0.0386 -0.04884,-0.1394 0,-0.16383 0.146529,-0.0733 0.375634,0.11584 0.491477,0 0.03861,-0.0386 -0.03862,-0.12521 0,-0.16382 0.07723,-0.0772 0.229963,0.0488 0.327649,0 0.681802,-0.3409 -0.175135,0.0113 0.163828,-0.32765 0.11584,-0.11584 0.344945,0.0733 0.491474,0 0.03194,-0.016 0.128278,-0.29211 0.163827,-0.32765 0.08208,-0.0821 0.547899,-0.0564 0.655302,-0.16383 0.07723,-0.0772 -0.07723,-0.25042 0,-0.32765 0.107399,-0.1074 0.573222,-0.0817 0.655301,-0.16383 0.03861,-0.0386 -0.03862,-0.12521 0,-0.16382 0.07723,-0.0772 0.250423,0.0772 0.32765,0 0.33896,-0.33896 -0.517978,0.0133 0.163824,-0.32765 0.04885,-0.0244 0.125212,0.0386 0.163828,0 0.03861,-0.0386 -0.03862,-0.12521 0,-0.16383 0.07573,-0.0757 0.392562,0.0495 0.491474,0 0.371099,-0.18554 0.775681,-0.1421 1.146778,-0.32765 0.131061,-0.0655 0.360415,0.0655 0.491477,0 0.238926,-0.11946 0.262075,-0.26207 0.327649,-0.32765 0.06677,-0.0668 1.308457,-0.0808 1.47443,-0.16382 0.352171,-0.17609 0.739273,-0.19182 1.146779,-0.32766 0.165965,-0.0553 0.702185,0.11695 0.819126,0 0.03861,-0.0386 -0.03861,-0.12521 0,-0.16382 0.07573,-0.0757 0.392562,0.0495 0.491477,0 0.06907,-0.0345 0.09475,-0.12929 0.163824,-0.16382 0.166608,-0.0833 1.210554,-0.0638 1.310603,-0.16383 0.03861,-0.0386 -0.03861,-0.12521 0,-0.16383 0.08191,-0.0819 0.409565,0.0819 0.491477,0 0.03861,-0.0386 -0.03862,-0.12521 0,-0.16382 0.05461,-0.0546 0.436867,-0.10922 0.491474,-0.16383 0.03862,-0.0386 -0.03861,-0.12521 0,-0.16382 0.08208,-0.0821 0.547902,-0.0564 0.655302,-0.16383 0.12211,-0.12211 0.06804,-0.34779 0.163827,-0.49147 -0.105389,-0.23552 0.304263,-0.14044 0.327649,-0.16383 0.147945,-0.14794 0.230056,-0.62393 0.327652,-0.81913 0.374883,-0.74976 -0.0679,0.69518 0.32765,-0.49147 0.101489,-0.30446 0.08776,-2.35791 0,-2.62121 -0.108003,-0.32401 -0.191545,-0.54692 -0.32765,-0.81912 -0.04946,-0.0989 0.07573,-0.41575 0,-0.49148 -0.03861,-0.0386 -0.125211,0.0386 -0.163824,0 -0.07573,-0.0757 0.04946,-0.39256 0,-0.49148 -0.340903,-0.6818 0.0113,0.17514 -0.327652,-0.16382 -0.08191,-0.0819 -0.08191,-0.24574 -0.163825,-0.32765 -0.03862,-0.0386 -0.125211,0.0386 -0.163827,0 -0.338961,-0.33897 0.517977,0.0132 -0.163825,-0.32765 -0.09769,-0.0489 -0.229963,0.0488 -0.32765,0 -0.344286,-0.17215 -0.496697,-0.0845 -0.655301,-0.16383 -0.06908,-0.0345 -0.09056,-0.1394 -0.163827,-0.16382 -0.188243,-0.0628 -2.215648,-0.039 -2.293554,0 -0.06907,0.0345 -0.09056,0.1394 -0.163825,0.16382 -0.207224,0.0691 -0.443391,-0.053 -0.655301,0 -0.791105,0.19778 0.0081,0.0778 -0.491477,0.32765 -0.200554,0.10028 -0.927902,0.28388 -1.146778,0.32765 -0.443865,0.0888 -0.871787,0.23989 -1.310603,0.32765 -0.160645,0.0321 -0.332542,-0.0397 -0.491477,0 -0.244173,0.0611 -0.531932,0.41968 -0.819126,0.49148 -0.256982,0.0642 -0.562147,-0.0643 -0.819126,0 -0.10127,0.0253 -1.849398,0.89557 -1.965905,0.98295 -0.09769,0.0733 -0.06614,0.25439 -0.163827,0.32765 -0.23526,0.17645 -0.57444,0.16453 -0.819126,0.32765 -0.314399,0.2096 -0.592955,0.55781 -0.982954,0.65531 -0.105955,0.0265 -0.224038,-0.0345 -0.327649,0 -0.213567,0.0712 -2.866652,2.04752 -3.112683,2.29355 -0.08634,0.0863 -0.07748,0.24131 -0.163825,0.32765 -0.225157,0.22516 -0.593971,0.26632 -0.819126,0.49148 -0.08634,0.0863 -0.07748,0.2413 -0.163827,0.32765 -0.172686,0.17269 -0.482613,0.15496 -0.655302,0.32765 -0.08634,0.0863 -0.07748,0.2413 -0.163824,0.32765 -0.275461,0.27546 -0.555594,0.30392 -0.819127,0.6553 -0.488426,0.65123 -0.8237,1.3167 -1.310603,1.9659 -0.191666,0.25556 -1.258543,1.26619 -1.310602,1.47443 -0.03974,0.15894 0.03973,0.33255 0,0.49148 -0.07168,0.28669 -0.542412,0.48046 -0.655302,0.81913 -0.09804,0.29412 -0.06896,0.69835 -0.163827,0.98295 -0.02442,0.0733 -0.109218,0.10922 -0.163825,0.16382 -0.05461,0.10922 -0.13421,0.20919 -0.163825,0.32766 -0.06425,0.25698 0.06424,0.56214 0,0.81912 -0.01273,0.0509 -0.261416,0.62042 -0.327652,0.81913 -0.14587,0.43761 -0.21228,0.84912 -0.327649,1.3106 -0.113578,0.45432 0.1476,1.03163 0,1.47443 -0.02442,0.0733 -0.139404,0.0906 -0.163825,0.16383 -0.195961,0.58787 0.02088,2.04937 0.163825,2.6212 0.12719,0.50877 -0.01066,1.44242 0.163825,1.96591 0.102391,0.30717 0.389085,0.67578 0.491476,0.98295 0.05181,0.15542 -0.07326,0.34494 0,0.49148 0.139282,0.27856 0.358609,0.55339 0.491477,0.81912 0.07326,0.14653 -0.05181,0.33606 0,0.49148 0.04884,0.14653 0.241972,0.19913 0.327649,0.32765 0.201565,0.30235 0.232892,0.79343 0.327653,0.98295 0.119462,0.23893 0.262075,0.26208 0.327649,0.32765 0.06865,0.0686 0.114181,0.39219 0.163825,0.49148 0.01458,0.0291 1.080487,0.9498 1.146778,0.98295 0.140107,0.0701 0.351369,0.0938 0.491477,0.16383 0.219419,0.10971 0.227002,0.39082 0.327649,0.49147 0.0848,0.0848 0.570508,0.079 0.655302,0.16383 0.03862,0.0386 -0.04884,0.1394 0,0.16382 0.09769,0.0488 0.224038,-0.0345 0.327652,0 0.146529,0.0488 0.18112,0.27881 0.327649,0.32765 0.745781,0 0.0094,-0.0772 0.491477,0.16383 0.26212,0.13106 0.720833,-0.13106 0.982953,0 0.436867,0.21843 -0.491476,0.16382 0.163825,0.16382 0.163825,0 0.531209,-0.15893 0.491477,0 -0.05923,0.23693 -0.218435,0.43687 -0.327652,0.65531 z"
       id="acc"
       style="opacity:1" /><path
       d="m 105.8312,164.80834 c 0.16382,-0.21844 0.2984,-0.46224 0.49148,-0.6553 0.12535,-0.12536 0.33654,-0.0952 0.49147,-0.32765 0.12256,-0.18384 0.23497,-0.46995 0.32765,-0.65531 0.0682,-0.1364 -0.10392,-0.55138 0,-0.6553 0.0386,-0.0386 0.12521,0.0386 0.16383,0 0.11584,-0.11584 -0.0733,-0.34494 0,-0.49147 0.0244,-0.0489 0.12521,0.0386 0.16382,0 0.0363,-0.0363 0,-1.99693 0,-2.29356 0,-0.61346 -0.0924,-1.28961 0.16383,-1.80208 0.0655,-0.13106 -0.0655,-0.36042 0,-0.49147 0.0983,-0.19659 0.39318,-0.29489 0.49147,-0.49148 0.0675,-0.13498 0.0665,-0.23028 0.16383,-0.32765 0.0386,-0.0386 0.12521,0.0386 0.16383,0 0.0386,-0.0386 -0.0386,-0.12521 0,-0.16383 0.10901,-0.10901 0.21863,0.10902 0.32764,0 0.0386,-0.0386 -0.0244,-0.11498 0,-0.16382 0.15294,-0.30587 0.71502,-0.52134 0.98296,-0.6553 0.0977,-0.0488 0.25042,0.0772 0.32765,0 0.0772,-0.0772 -0.0772,-0.25043 0,-0.32766 0.16116,-0.16116 0.6269,-0.0677 0.81913,-0.16382 0.15984,-0.0799 1.07611,-0.58464 1.14677,-0.6553 0.0386,-0.0386 -0.0488,-0.13941 0,-0.16383 0.23912,-0.11955 0.7619,0.0572 0.98296,-0.16382 0.0772,-0.0772 -0.0772,-0.25043 0,-0.32765 0.21349,-0.21349 0.99746,-0.17109 1.3106,-0.32766 0.21013,-0.10506 0.43718,-0.41876 0.6553,-0.49147 0.13397,-0.0447 0.89172,-0.11821 0.98295,-0.16383 0.0489,-0.0244 -0.0386,-0.12521 0,-0.16382 0.0537,-0.0537 0.53305,-0.26652 0.65531,-0.32765 0.26633,-0.13317 0.71661,-0.19449 0.98295,-0.32765 0.0691,-0.0345 0.0906,-0.13941 0.16382,-0.16383 0.10361,-0.0345 0.22997,0.0488 0.32765,0 0.42469,-0.21234 0.3415,-0.37207 0.81913,-0.49147 0.1849,-0.0462 0.6689,-0.0637 0.81913,-0.16383 0.12837,-0.0856 0.24385,-0.36766 0.49147,-0.49148 0.26207,-0.13103 0.82899,-0.11579 1.14678,-0.32765 0.1016,-0.0677 0.0546,-0.27304 0.16382,-0.32765 0.0977,-0.0488 0.22404,0.0345 0.32766,0 0.0733,-0.0244 0.0948,-0.12929 0.16382,-0.16382 0.15861,-0.0793 0.31102,0.008 0.6553,-0.16383 0.14653,-0.0733 0.33606,0.0518 0.49148,0 0.3569,0.0612 0.0546,-0.27304 0.16382,-0.32765 0.0977,-0.0488 0.22997,0.0488 0.32766,0 0.0488,-0.0244 -0.0386,-0.12521 0,-0.16382 0.14603,-0.14604 0.48131,-0.0768 0.6553,-0.16383 0.0778,-0.0389 0.80886,-0.48121 0.81912,-0.49147 0.0386,-0.0386 -0.0386,-0.12522 0,-0.16383 0.0819,-0.0819 0.40957,0.0819 0.49148,0 0.0386,-0.0386 -0.0386,-0.12521 0,-0.16383 0.0848,-0.0848 0.57051,-0.079 0.6553,-0.16382 0.33896,-0.33896 -0.51798,0.0132 0.16383,-0.32765 0.0989,-0.0495 0.41574,0.0757 0.49147,0 0.0386,-0.0386 -0.0488,-0.13941 0,-0.16383 0.43833,-0.21916 1.23091,0.0797 1.63826,-0.32765 0.0386,-0.0386 -0.0386,-0.12521 0,-0.16383 0.0757,-0.0757 0.39256,0.0495 0.49147,0 0.0691,-0.0345 0.0948,-0.12928 0.16383,-0.16382 0.21011,-0.10506 1.42051,-0.0539 1.47443,0 0.23487,0.23487 0.16382,0.95064 0.16382,1.3106 0,0.44269 0.41163,1.14266 0.16383,1.63826 -0.16393,0.32786 -0.34135,0.68269 -0.49148,0.98295 -0.20185,0.40371 -0.4833,0.46695 -0.6553,0.98295 -0.074,0.22193 -0.39359,0.19781 -0.49147,0.49148 -0.12584,0.3775 -0.15676,0.97588 -0.49148,1.3106 -0.0386,0.0386 -0.12521,-0.0386 -0.16383,0 -0.1221,0.12211 -0.068,0.34779 -0.16382,0.49148 -0.12907,0.1936 -0.39314,0.22931 -0.49148,0.32765 -0.12211,0.12211 -0.0417,0.36937 -0.16383,0.49148 -0.20883,0.20883 -1.21183,0.72035 -1.3106,0.81912 -0.13922,0.13922 -0.18842,0.35225 -0.32765,0.49148 -0.26292,0.26291 -1.26361,0.73319 -1.63825,0.98295 -0.28952,0.19302 -0.49907,0.71244 -0.81913,0.81913 -0.10361,0.0345 -0.22404,-0.0345 -0.32765,0 -0.32031,0.10677 -0.67613,0.50189 -0.98295,0.6553 -0.15446,0.0772 -0.33702,0.0866 -0.49148,0.16382 -0.26212,0.13106 -0.39318,0.52424 -0.6553,0.65531 -0.15446,0.0772 -0.36937,0.0417 -0.49148,0.16382 -0.0772,0.0772 0.0606,0.23678 0,0.32765 -0.17038,0.25557 -0.76342,0.27195 -0.98295,0.49148 -0.0863,0.0863 -0.0775,0.2413 -0.16382,0.32765 -0.12067,0.12067 -0.65832,0.22044 -0.81913,0.32765 -0.19277,0.12851 -0.27168,0.41821 -0.49148,0.49147 -0.10361,0.0345 -0.22169,-0.0265 -0.32765,0 -0.29651,-0.0987 -0.30468,0.26539 -0.49147,0.32766 -0.10361,0.0345 -0.23678,-0.0606 -0.32765,0 -0.1016,0.0677 -0.0661,0.25438 -0.16383,0.32765 -0.13815,0.10361 -0.33702,0.0866 -0.49147,0.16382 -0.3783,0.18915 -0.74893,0.68651 -1.14678,0.81913 -0.10362,0.0345 -0.2217,-0.0265 -0.32766,0 -0.42407,0.10602 -0.70351,0.54449 -1.14677,0.6553 -0.32603,0.0815 -0.66993,0.17114 -0.98295,0.32765 -0.20883,0.10441 -0.43875,0.41929 -0.65531,0.49148 -0.45889,0.15296 -0.52405,0.0109 -0.98295,0.16382 -0.14653,0.0488 -0.18112,0.27881 -0.32765,0.32765 -0.37847,0.12616 -0.95847,-0.17606 -1.3106,0 -0.0691,0.0345 -0.0947,0.12929 -0.16383,0.16383 -0.0923,0.0461 -2.12298,0.17058 -2.12973,0.16382 -0.0386,-0.0386 0.0386,-0.12521 0,-0.16382 -0.13843,-0.13843 -0.65227,0.11124 -0.81912,0 -0.29094,-0.19396 -0.54609,-0.43687 -0.81913,-0.6553 z"
       id="hippocampus" /><path
       d="m 93.708121,148.91727 c 1.067856,1.48535 -0.809895,-0.81912 -0.491477,-0.81912 0.318418,0 0.277283,0.58351 0.491477,0.81912 0.436867,0.38226 0.873733,0.76452 1.310603,1.14678 0.05461,0.10922 0.09056,0.22997 0.163825,0.32765 0.427143,0.56953 1.418896,1.79931 1.638255,2.45738 0.03454,0.10362 -0.03454,0.22404 0,0.32766 0.09242,0.27726 0.524166,0.2292 0.655301,0.49147 0.201745,0.40349 -0.475544,-0.14789 0.163825,0.49148 0.03861,0.0386 0.139403,-0.0489 0.163824,0 0.17984,0.35968 -0.01407,0.95479 0.163825,1.3106 0.162327,0.32465 0.03976,0.28311 0.163828,0.6553 0.04884,0.14653 0.258574,0.1895 0.327649,0.32765 0.07327,0.14653 -0.07326,0.34495 0,0.49148 0.02442,0.0488 0.125211,-0.0386 0.163825,0 0.103917,0.10391 -0.0682,0.5189 0,0.6553 0.122166,0.24433 0.366524,0.4054 0.491476,0.6553 0.04885,0.0977 -0.07723,0.25043 0,0.32765 0.03861,0.0386 0.125212,-0.0386 0.163825,0 0.103918,0.10392 -0.0682,0.51891 0,0.6553 0.340902,0.68181 -0.0113,-0.17513 0.327652,0.16383 0.109218,0.10922 -0.109217,0.54608 0,0.6553 0.214236,0.21424 0.111128,-1.42173 0.327652,-1.63825 0.116934,-0.11693 0.117054,-0.28088 0.163824,-0.32765 0.33896,-0.33896 -0.0132,0.51797 0.32765,-0.16383 0.0244,-0.0488 -0.0386,-0.12521 0,-0.16382 0.14062,-0.14063 0.53633,-0.0897 0.6553,-0.32765 0.0244,-0.0489 -0.0386,-0.12522 0,-0.16383 0.15619,-0.15619 1.6233,-0.47652 1.63826,-0.49148 0.0386,-0.0386 -0.0386,-0.12521 0,-0.16382 0.0757,-0.0757 0.39256,0.0495 0.49147,0 0.0691,-0.0345 0.0947,-0.12929 0.16383,-0.16383 0.0977,-0.0488 0.25042,0.0772 0.32765,0 0.0386,-0.0386 -0.0386,-0.12521 0,-0.16382 0.0434,-0.0434 0.42402,0 0.49147,0 0.29553,0 2.27774,-0.34348 2.45739,-0.16383 0.0386,0.0386 -0.0386,0.12521 0,0.16383 0.0772,0.0772 0.25042,-0.0772 0.32765,0 0.0386,0.0386 -0.0386,0.12521 0,0.16382 0.0386,0.0386 0.12521,-0.0386 0.16382,0 0.0386,0.0386 -0.0244,0.11499 0,0.16383 0.0203,0.0405 0.71811,0.60479 0.81913,0.6553 0.17226,0.0861 0.62235,0 0.81912,0 0.11004,0 1.28189,-0.13511 1.31061,-0.16383 0.0386,-0.0386 -0.0386,-0.12521 0,-0.16382 0.0386,-0.0386 0.12521,0.0386 0.16383,0 0.0863,-0.0863 0.0775,-0.24131 0.16382,-0.32765 0.0386,-0.0386 0.12521,0.0386 0.16382,0 0.16383,-0.16383 0,-0.6553 0.16383,-0.81913 0.0819,-0.0819 0.24574,-0.0819 0.32765,-0.16382 0.0772,-0.0772 -0.0488,-0.22997 0,-0.32766 0.22328,-0.44656 0.22328,-0.86403 0,-1.3106 -0.0655,-0.13106 0.0655,-0.36041 0,-0.49148 -0.3409,-0.6818 0.0113,0.17514 -0.32765,-0.16382 -0.0952,-0.0952 -0.095,-0.51763 -0.16383,-0.6553 -0.0691,-0.13815 -0.2788,-0.18112 -0.32764,-0.32765 -0.0345,-0.10361 0.0345,-0.22404 0,-0.32765 -0.0365,-0.10957 -0.43049,-0.56382 -0.49148,-0.6553 -0.12974,-0.19461 -0.56638,-0.85658 -0.81913,-0.98296 -0.0488,-0.0244 -0.12521,0.0386 -0.16383,0 -0.0386,-0.0386 0.0303,-0.11839 0,-0.16382 -0.21507,-0.32261 -0.53019,-0.51084 -0.81912,-0.6553 -0.25091,-0.12546 -0.12812,-0.29194 -0.32765,-0.49148 -0.19075,-0.19075 -0.90502,-0.24706 -1.14678,-0.32765 -0.26618,-0.0887 -0.32378,-0.4086 -0.6553,-0.49148 -0.4314,-0.10785 -0.86059,-0.17764 -1.3106,-0.32765 -0.38138,-0.12712 -0.59668,-0.36271 -0.98296,-0.49147 -0.39533,-0.13178 -0.77195,-0.14024 -1.14678,-0.32766 -0.14652,-0.0733 -0.33605,0.0518 -0.49147,0 -0.2061,-0.0687 -0.41359,-0.24707 -0.6553,-0.32764 -0.44233,-0.14745 -1.0321,0.14744 -1.474431,0 -0.435674,-0.14523 -2.523249,-0.37663 -2.948855,-0.16383 -0.06907,0.0345 -0.09056,0.1394 -0.163828,0.16383 -0.155416,0.0518 -0.375634,-0.11585 -0.491474,0 -0.03862,0.0386 0.03861,0.12521 0,0.16382 -0.0715,0.0715 -0.824788,0.4124 -0.982953,0.49148 -0.192226,0.0961 -0.657966,0.003 -0.819127,0.16382 -0.08191,0.0819 -0.08191,0.24574 -0.163824,0.32765 -0.07723,0.0772 -0.250423,-0.0772 -0.327652,0 -0.08191,0.0819 -0.08191,0.24574 -0.163825,0.32765 -0.07723,0.0772 -0.35414,-0.10595 -0.327652,0 0.05923,0.23693 0.218435,0.43687 0.327652,0.6553"
       id="hypothalamus" /><path
       d="m 88.465709,141.38131 c -0.522787,0.14536 -1.189223,0.0849 -1.47443,0.6553 -0.02442,0.0488 0.04885,0.1394 0,0.16383 -0.09769,0.0488 -0.224039,-0.0345 -0.32765,0 -0.240937,0.0803 -0.162943,0.49059 -0.327652,0.6553 -0.08634,0.0863 -0.241308,0.0775 -0.327649,0.16382 -0.175416,0.17542 -0.785871,2.39333 -0.655301,2.78503 0.09287,0.2786 0.741841,1.35388 0.98295,1.47443 0.04885,0.0244 0.125212,-0.0386 0.163825,0 0.03862,0.0386 -0.03861,0.12521 0,0.16383 0.132286,0.13228 1.715061,0.0384 1.965907,0.16382 0.06907,0.0345 0.09475,0.12929 0.163825,0.16383 0.317828,0.15891 1.534422,-0.19382 1.80208,-0.32765 0.131058,-0.0655 0.360415,0.0655 0.491474,0 0.244332,-0.12217 0.405394,-0.36653 0.655301,-0.49148 0.09769,-0.0488 0.250423,0.0772 0.327652,0 0.03861,-0.0386 -0.03861,-0.12521 0,-0.16382 0.109218,-0.10922 0.546084,0.10921 0.655302,0 0.08191,-0.0819 0.08191,-0.24574 0.163824,-0.32766 0.07723,-0.0772 0.229966,0.0488 0.327652,0 0.205272,-0.10263 0.156734,-0.3241 0.491475,-0.49147 0.183835,-0.0919 0.465537,-0.0689 0.655304,-0.16383 0.225766,-0.11288 0.220387,-0.38421 0.327649,-0.49147 0.08191,-0.0819 0.409565,0.0819 0.491477,0 0.03861,-0.0386 -0.03861,-0.12521 0,-0.16383 0.08191,-0.0819 0.409562,0.0819 0.491477,0 0.03861,-0.0386 -0.03862,-0.12521 0,-0.16382 0.07573,-0.0757 0.392562,0.0495 0.491474,0 0.310226,-0.15512 0.432956,-0.32765 0.819129,-0.32765 0.06746,0 0.448108,0.0434 0.491474,0 0.03862,-0.0386 -0.03861,-0.12522 0,-0.16383 0.05576,-0.0558 0.901485,-0.0407 0.982953,0 0.238927,0.11946 0.262075,0.26208 0.32765,0.32765 0.03862,0.0386 0.125211,-0.0386 0.163827,0 0.03861,0.0386 -0.04885,0.1394 0,0.16383 0.270817,0.1354 0.716992,0.0308 0.982951,0.16382 0.04885,0.0244 -0.04884,0.1394 0,0.16383 0.180414,0.0902 0.463201,-0.064 0.655301,0 0.28616,0.0954 0.41521,0.41144 0.6553,0.49147 0.74578,0 0.009,-0.0772 0.49148,0.16383 0.31974,0.15987 1.39333,0.0276 1.80208,0.16382 0.0733,0.0244 0.0948,0.12929 0.16382,0.16383 0.23208,0.11604 0.58184,0.0847 0.81913,0.16382 0.2061,0.0687 0.41359,0.24708 0.6553,0.32766 0.30637,0.10212 1.45953,-0.007 1.80208,0.16382 0.46792,0.23396 0.9046,0.32765 1.47443,0.32765 0.37012,0 -0.0733,-0.0244 0.49147,0.16383 0.54359,0.18119 5.28465,-0.0422 5.40624,-0.16383 0.0656,-0.0656 0.0887,-0.20819 0.32765,-0.32765 0.0977,-0.0488 0.25043,0.0772 0.32766,0 0.0386,-0.0386 -0.0386,-0.12521 0,-0.16382 0.0819,-0.0819 0.40956,0.0819 0.49147,0 0.10425,-0.10425 0.22308,-0.44617 0.32765,-0.65531 0.11289,-0.22577 0.38422,-0.22039 0.49148,-0.32765 0.0772,-0.0772 -0.0488,-0.22996 0,-0.32765 0.3409,-0.6818 -0.0113,0.17514 0.32765,-0.16382 0.1134,-0.11341 0.32765,-1.12941 0.32765,-1.31061 0,-0.3405 -0.0113,-0.17506 -0.16382,-0.32765 -0.0821,-0.0821 -0.0564,-0.5479 -0.16383,-0.6553 -0.0772,-0.0772 -0.22996,0.0488 -0.32765,0 -0.16436,-0.0822 -0.35775,-0.19392 -0.49148,-0.32765 -0.16652,-0.16653 -1.06624,-0.24436 -0.81912,-0.49147 0.0819,-0.0819 0.40956,0.0819 0.49147,0 0.0386,-0.0386 -0.0386,-0.12522 0,-0.16383 0.33896,-0.33896 -0.0132,0.51798 0.32765,-0.16383 0.0244,-0.0488 -0.0488,-0.1394 0,-0.16382 0.14653,-0.0733 0.37564,0.11584 0.49148,0 0.0386,-0.0386 -0.0488,-0.13941 0,-0.16383 0.43213,-0.21607 1.1766,0.15389 1.63825,0 0.0733,-0.0244 0.0947,-0.12929 0.16383,-0.16382 0.0661,-0.0331 4.34775,-0.0378 4.42328,0 0.0691,0.0345 0.0947,0.12928 0.16383,0.16382 0.12409,0.062 0.73691,-5.3e-4 0.81912,0.16383 0.0733,0.14653 -0.11584,0.37563 0,0.49148 0.33896,0.33896 -0.0132,-0.51798 0.32766,0.16382 0.0753,0.1507 0.0716,1.40284 0,1.47443 -0.0656,0.0656 -0.20819,0.0887 -0.32766,0.32765 -0.0488,0.0977 0.0772,0.25042 0,0.32765 -0.0386,0.0386 -0.12521,-0.0386 -0.16382,0 -0.0949,0.095 -0.2327,0.56035 -0.32765,0.6553 -0.0386,0.0386 -0.12521,-0.0386 -0.16383,0 -0.0386,0.0386 0.0244,0.11498 0,0.16383 -0.3409,0.6818 0.0113,-0.17514 -0.32765,0.16382 -0.0863,0.0863 -0.0775,0.24131 -0.16382,0.32765 -0.13094,0.13094 -0.50063,0.18213 -0.65531,0.49148 -0.145,0.29001 0.24369,0.056 -0.16382,0.32765 -0.14368,0.0958 -0.36937,0.0417 -0.49148,0.16383 -0.0265,0.0265 -0.14396,0.48154 -0.16382,0.49147 -0.0977,0.0488 -0.22997,-0.0488 -0.32765,0 -0.0489,0.0244 0.0386,0.12521 0,0.16383 -0.0863,0.0863 -0.21844,0.10921 -0.32765,0.16382 -0.0582,0.0291 -0.47636,0.13359 -0.49148,0.16383 -0.0488,0.0977 0.0772,0.25042 0,0.32765 -0.004,0.004 -0.88497,0.13116 -0.98295,0.16382 -0.3293,0.10977 0.002,0.38171 -0.32765,0.49148 -0.28626,0.0954 -0.53288,0.0684 -0.81913,0.16382 -0.47547,0.1585 -0.86021,0.59394 -1.3106,0.81913 -0.31284,0.15642 -0.70873,0.0534 -0.98296,0.32765 -0.13372,0.13373 -0.32712,0.24548 -0.49147,0.32765 -0.0989,0.0495 -0.41575,-0.0757 -0.49148,0 -0.0386,0.0386 0.0489,0.13941 0,0.16383 -0.0977,0.0488 -0.22403,-0.0345 -0.32765,0 -0.21812,0.0727 -0.44517,0.38641 -0.6553,0.49148 -0.0488,0.0244 -0.10922,0 -0.16382,0 -0.0546,0.0546 -0.0947,0.12928 -0.16383,0.16382 -0.0977,0.0488 -0.32765,-0.10922 -0.32765,0 0,0.10922 0.21843,0 0.32765,0 0.29207,0 0.70921,0.0913 0.98295,0 0.28105,-0.0937 0.55783,-0.0767 0.81913,-0.16382 0.14653,-0.0488 0.18112,-0.27881 0.32765,-0.32766 0.075,-0.025 1.1386,-0.15565 1.14678,-0.16382 0.0386,-0.0386 -0.0386,-0.12521 0,-0.16383 0.0757,-0.0757 0.39256,0.0495 0.49148,0 0.34616,-0.17308 0.78936,-0.2532 1.14677,-0.49147 0.0454,-0.0303 -0.0488,-0.13941 0,-0.16383 0.10167,-0.0508 0.51015,0 0.6553,0 0.16744,0 1.04738,-0.11412 1.14678,-0.16382 0.13815,-0.0691 0.1895,-0.25858 0.32765,-0.32765 0.0989,-0.0495 0.41575,0.0757 0.49148,0 0.0386,-0.0386 -0.0489,-0.13941 0,-0.16383 0.14653,-0.0733 0.37563,0.11584 0.49147,0 0.0386,-0.0386 -0.0386,-0.12521 0,-0.16383 0.0757,-0.0757 0.39257,0.0495 0.49148,0 0.13815,-0.0691 0.1895,-0.25857 0.32765,-0.32764 0.0488,-0.0244 0.12521,0.0386 0.16383,0 0.0386,-0.0386 -0.0386,-0.12522 0,-0.16383 0.21096,-0.21097 0.57991,-0.0442 0.81912,-0.16383 0.23856,-0.11927 0.35076,-0.0935 0.49148,-0.16382 0.10922,-0.0546 0.0546,-0.27304 0.16382,-0.32765 0.0977,-0.0488 0.22997,0.0488 0.32766,0 0.0488,-0.0244 -0.0386,-0.12522 0,-0.16383 0.0386,-0.0386 0.11498,0.0244 0.16382,0 0.0691,-0.0345 0.0906,-0.1394 0.16383,-0.16382 0.15541,-0.0518 0.34494,0.0733 0.49147,0 0.29557,-0.14779 0.53184,-0.51166 0.81913,-0.6553 0.0977,-0.0489 0.25042,0.0772 0.32765,0 0.0386,-0.0386 -0.0386,-0.12522 0,-0.16383 0.10065,-0.10065 0.38177,-0.10823 0.49148,-0.32765 0.0488,-0.0977 -0.0772,-0.25042 0,-0.32765 0.0386,-0.0386 0.12521,0.0386 0.16382,0 0.12211,-0.12211 0.068,-0.34779 0.16383,-0.49148 -0.0164,-0.32455 0.24131,-0.0775 0.32765,-0.16382 0.16087,-0.16088 0.0472,-0.70253 0.16382,-0.81913 0.33896,-0.33896 -0.0132,0.51798 0.32765,-0.16383 0.0733,-0.14652 -0.0518,-0.33605 0,-0.49147 0.0244,-0.0733 0.12929,-0.0948 0.16383,-0.16383 0.19659,-0.39318 -0.19659,-1.08124 0,-1.47442 0.0345,-0.0691 0.12929,-0.0948 0.16383,-0.16383 0.0301,-0.0601 -0.30097,-2.26687 -0.32766,-2.29356 -0.0386,-0.0386 -0.11498,0.0244 -0.16382,0 -0.30161,-0.1508 -0.026,-0.34067 -0.32765,-0.49147 -0.0977,-0.0488 -0.22997,0.0488 -0.32765,0 -0.13815,-0.0691 -0.19914,-0.24198 -0.32765,-0.32765 -0.31096,-0.20731 -0.81008,-0.54307 -1.14678,-0.6553 -0.10361,-0.0345 -0.22404,0.0345 -0.32765,0 -0.3293,-0.10977 0.002,-0.38172 -0.32765,-0.49148 -0.23713,-0.079 -0.43983,-0.0561 -0.6553,-0.16383 -0.13815,-0.0691 -0.18951,-0.25857 -0.32766,-0.32765 -0.0488,-0.0244 -0.12521,0.0386 -0.16382,0 -0.0386,-0.0386 0.0488,-0.1394 0,-0.16382 -0.17475,-0.0874 -0.48056,0.0874 -0.6553,0 -0.87587,-0.43794 -2.57356,-0.16383 -3.60416,-0.16383 -0.11839,0 -0.82139,0.0539 -0.98295,0 -0.0733,-0.0244 -0.0906,-0.1394 -0.16383,-0.16382 -0.63892,-0.21298 -1.49081,0.21297 -2.12973,0 -0.0733,-0.0244 -0.0889,-0.1451 -0.16382,-0.16383 -0.46237,-0.11559 -0.69569,-0.0135 -1.14678,-0.16382 -0.5727,-0.1909 -3.56703,0 -4.42329,0 -0.74578,0 -0.009,0.0772 -0.49147,-0.16383 -0.39807,-0.19903 -1.34593,0 -1.80208,0 -1.55002,0 -2.98734,-0.0313 -4.42329,0.32765 -0.55424,0.13856 -1.26163,-0.18015 -1.80208,0 -0.45055,0.15018 -0.86005,0.17747 -1.3106,0.32765 -0.688067,0.22936 -1.605488,-0.22935 -2.293556,0 -0.354412,0.11814 -0.680521,0.17644 -0.98295,0.32765 -0.131062,0.0655 -0.360418,-0.0655 -0.491477,0 -0.33982,0.16991 -0.646237,0.32312 -0.982954,0.49148 -0.208007,0.104 -0.601395,-0.0726 -0.819126,0 -0.07327,0.0244 -0.09475,0.12929 -0.163825,0.16382 -0.157183,0.0786 -0.309284,-0.009 -0.655301,0.16383 -0.09892,0.0495 -0.415745,-0.0757 -0.491477,0 -0.03861,0.0386 0.03861,0.12521 0,0.16383 -0.183496,0.18349 -1.109435,-0.0374 -1.310603,0.16382 -0.03861,0.0386 0.04884,0.1394 0,0.16383 -0.265962,0.13298 -0.712136,0.0284 -0.982953,0.16382 -0.03194,0.016 -0.128278,0.29211 -0.163825,0.32765 -0.146037,0.14604 -0.481314,0.0768 -0.655301,0.16383 -0.09991,0.05 -0.437354,0.2194 -0.491477,0.32765 -0.02442,0.0488 0.03862,0.12521 0,0.16382 -0.03861,0.0386 -0.125212,-0.0386 -0.163825,0 -0.03861,0.0386 0.03861,0.12522 0,0.16383 -0.07723,0.0772 -0.250423,-0.0772 -0.327649,0 -0.03862,0.0386 0.03861,0.12521 0,0.16382 -0.07723,0.0772 -0.250423,-0.0772 -0.327652,0 -0.188815,0.18882 -0.32765,1.12917 -0.32765,1.31061 z"
       id="basal-ganglia" /><path
       d="m 104.63985,164.04091 c 0.0895,-0.0671 0.17898,-0.13424 0.26847,-0.20136 0,-0.0224 -0.0158,-0.0513 0,-0.0671 0.0158,-0.0158 0.0471,0.01 0.0671,0 0.10653,-0.0533 0.15706,-0.22419 0.20136,-0.26849 0.0336,-0.0336 0.10067,-0.0336 0.13423,-0.0671 0.0627,-0.0627 0.0715,-0.27291 0.13425,-0.3356 0.0158,-0.0158 0.0513,0.0158 0.0671,0 0.0316,-0.0316 -0.02,-0.0942 0,-0.13424 0.20215,-0.40431 0.44505,-1.45908 0.20135,-1.94648 -0.28352,-0.56705 -1.03885,-1.39198 -1.61087,-1.678 -0.0793,-0.0396 -0.12732,-0.15199 -0.20136,-0.20135 -0.12222,-0.0815 -0.52941,-0.26471 -0.6712,-0.3356 -0.19012,-0.0951 -0.45977,-0.21563 -0.6712,-0.26848 -0.0434,-0.0109 -0.0918,0.0142 -0.13424,0 -0.03,-0.01 -0.0448,-0.0447 -0.0671,-0.0671 -0.0448,-0.0224 -0.0857,-0.055 -0.13424,-0.0671 -0.0651,-0.0163 -0.14132,0.03 -0.20136,0 -0.19227,-0.0961 -0.43898,-0.22204 -0.6712,-0.26848 -0.2673,-0.0535 -0.53253,-0.0797 -0.80543,-0.13424 -0.1029,-0.0206 -0.23625,0.0331 -0.3356,0 -0.11515,-0.0384 -0.228546,-0.0314 -0.335604,-0.0671 -0.03001,-0.01 -0.0371,-0.0571 -0.06712,-0.0671 -0.106124,-0.0354 -0.225253,0.0184 -0.335597,0 -0.198509,-0.0331 -0.522317,-0.0598 -0.6712,-0.13424 -0.135245,-0.0676 -0.390173,0.0293 -0.536959,0 -0.04906,-0.01 -0.0857,-0.055 -0.134239,-0.0671 -0.19698,-0.0493 -0.468836,0 -0.671198,0 -0.256381,0 -1.262292,-0.0715 -1.476637,0 -0.706657,0.23555 -1.199483,0.21795 -1.879356,0.6712 -0.08964,0.0598 -0.260128,0.12589 -0.3356,0.20136 -0.03538,0.0354 -0.03175,0.0989 -0.06712,0.13424 -0.09666,0.0967 -0.250348,0.1406 -0.335597,0.26847 -0.449578,0.67437 -0.541462,0.89057 -0.73832,1.678 -0.114996,0.45999 -0.230799,1.66503 -0.134239,2.14784 0.07326,0.36632 0.510659,0.9907 0.738317,1.27527 0.626126,0.78266 1.691471,1.06946 2.617677,1.27528 0.449931,0.1 0.887558,0.27062 1.342395,0.3356 0.153482,0.0219 0.316359,-0.0219 0.469839,0 0.535908,0.0766 1.064297,0.0671 1.610876,0.0671 0.357809,0 1.224022,0.0799 1.543752,0 0.0485,-0.0121 0.0852,-0.0573 0.13425,-0.0671 0.19309,-0.0386 0.24376,0.0124 0.40271,-0.0671 0.1713,-0.0856 0.48499,0.0372 0.6712,0 0.11283,-0.0226 1.17995,-0.30739 1.20816,-0.3356 0.0158,-0.0158 -0.0158,-0.0513 0,-0.0671 0.0605,-0.0605 0.25557,-0.0942 0.3356,-0.13424 0.13455,-0.0673 0.80544,-0.73092 0.80544,-0.80544"
       id="amygdala" /></g></svg>
